<?xml version="1.0" encoding="us-ascii" standalone="no"?><svg xmlns="http://www.w3.org/2000/svg" xmlns:xlink="http://www.w3.org/1999/xlink" contentStyleType="text/css" height="734px" preserveAspectRatio="none" style="width:1241px;height:734px;background:#FFFFFF;" version="1.1" viewBox="0 0 1241 734" width="1241px" zoomAndPan="magnify"><defs/><g><rect fill="#FFFFFF" height="527.2969" style="stroke:#181818;stroke-width:1.0;" width="10" x="442.5" y="114.9609"/><rect fill="#FFFFFF" height="30.3516" style="stroke:#181818;stroke-width:1.0;" width="10" x="702.5" y="145.3125"/><rect fill="#FFFFFF" height="30.3516" style="stroke:#181818;stroke-width:1.0;" width="10" x="702.5" y="206.0156"/><rect fill="#FFFFFF" height="30.3516" style="stroke:#181818;stroke-width:1.0;" width="10" x="839" y="266.7188"/><rect fill="#FFFFFF" height="30.3516" style="stroke:#181818;stroke-width:1.0;" width="10" x="1005.5" y="445.1484"/><rect fill="#FFFFFF" height="30.3516" style="stroke:#181818;stroke-width:1.0;" width="10" x="1157.5" y="505.8516"/><rect fill="#FFFFFF" height="30.3516" style="stroke:#181818;stroke-width:1.0;" width="10" x="1157.5" y="566.5547"/><rect fill="none" height="323.1875" style="stroke:#000000;stroke-width:1.5;" width="1224.5" x="10" y="312.0703"/><line style="stroke:#181818;stroke-width:0.5;stroke-dasharray:5.0,5.0;" x1="37" x2="37" y1="82.6094" y2="652.2578"/><line style="stroke:#181818;stroke-width:0.5;stroke-dasharray:5.0,5.0;" x1="447.5" x2="447.5" y1="82.6094" y2="652.2578"/><line style="stroke:#181818;stroke-width:0.5;stroke-dasharray:5.0,5.0;" x1="707.5" x2="707.5" y1="82.6094" y2="652.2578"/><line style="stroke:#181818;stroke-width:0.5;stroke-dasharray:5.0,5.0;" x1="843.5" x2="843.5" y1="82.6094" y2="652.2578"/><line style="stroke:#181818;stroke-width:0.5;stroke-dasharray:5.0,5.0;" x1="1010.5" x2="1010.5" y1="82.6094" y2="652.2578"/><line style="stroke:#181818;stroke-width:0.5;stroke-dasharray:5.0,5.0;" x1="1162.5" x2="1162.5" y1="82.6094" y2="652.2578"/><text fill="#000000" font-family="sans-serif" font-size="14" lengthAdjust="spacing" textLength="29" x="20" y="79.5332">User</text><ellipse cx="37.5" cy="13.5" fill="#E2E2F0" rx="8" ry="8" style="stroke:#181818;stroke-width:0.5;"/><path d="M37.5,21.5 L37.5,48.5 M24.5,29.5 L50.5,29.5 M37.5,48.5 L24.5,63.5 M37.5,48.5 L50.5,63.5 " fill="none" style="stroke:#181818;stroke-width:0.5;"/><text fill="#000000" font-family="sans-serif" font-size="14" lengthAdjust="spacing" textLength="29" x="20" y="665.791">User</text><ellipse cx="37.5" cy="677.3672" fill="#E2E2F0" rx="8" ry="8" style="stroke:#181818;stroke-width:0.5;"/><path d="M37.5,685.3672 L37.5,712.3672 M24.5,693.3672 L50.5,693.3672 M37.5,712.3672 L24.5,727.3672 M37.5,712.3672 L50.5,727.3672 " fill="none" style="stroke:#181818;stroke-width:0.5;"/><rect fill="#E2E2F0" height="31.6094" rx="2.5" ry="2.5" style="stroke:#181818;stroke-width:0.5;" width="136" x="379.5" y="50"/><text fill="#000000" font-family="sans-serif" font-size="14" lengthAdjust="spacing" textLength="122" x="386.5" y="71.5332">TransactionService</text><rect fill="#E2E2F0" height="31.6094" rx="2.5" ry="2.5" style="stroke:#181818;stroke-width:0.5;" width="136" x="379.5" y="651.2578"/><text fill="#000000" font-family="sans-serif" font-size="14" lengthAdjust="spacing" textLength="122" x="386.5" y="672.791">TransactionService</text><rect fill="#E2E2F0" height="31.6094" rx="2.5" ry="2.5" style="stroke:#181818;stroke-width:0.5;" width="100" x="657.5" y="50"/><text fill="#000000" font-family="sans-serif" font-size="14" lengthAdjust="spacing" textLength="86" x="664.5" y="71.5332">WalletService</text><rect fill="#E2E2F0" height="31.6094" rx="2.5" ry="2.5" style="stroke:#181818;stroke-width:0.5;" width="100" x="657.5" y="651.2578"/><text fill="#000000" font-family="sans-serif" font-size="14" lengthAdjust="spacing" textLength="86" x="664.5" y="672.791">WalletService</text><rect fill="#E2E2F0" height="31.6094" rx="2.5" ry="2.5" style="stroke:#181818;stroke-width:0.5;" width="153" x="767.5" y="50"/><text fill="#000000" font-family="sans-serif" font-size="14" lengthAdjust="spacing" textLength="139" x="774.5" y="71.5332">ExchangeRateService</text><rect fill="#E2E2F0" height="31.6094" rx="2.5" ry="2.5" style="stroke:#181818;stroke-width:0.5;" width="153" x="767.5" y="651.2578"/><text fill="#000000" font-family="sans-serif" font-size="14" lengthAdjust="spacing" textLength="139" x="774.5" y="672.791">ExchangeRateService</text><rect fill="#E2E2F0" height="31.6094" rx="2.5" ry="2.5" style="stroke:#181818;stroke-width:0.5;" width="160" x="930.5" y="50"/><text fill="#000000" font-family="sans-serif" font-size="14" lengthAdjust="spacing" textLength="146" x="937.5" y="71.5332">ITransactionRepository</text><rect fill="#E2E2F0" height="31.6094" rx="2.5" ry="2.5" style="stroke:#181818;stroke-width:0.5;" width="160" x="930.5" y="651.2578"/><text fill="#000000" font-family="sans-serif" font-size="14" lengthAdjust="spacing" textLength="146" x="937.5" y="672.791">ITransactionRepository</text><rect fill="#E2E2F0" height="31.6094" rx="2.5" ry="2.5" style="stroke:#181818;stroke-width:0.5;" width="124" x="1100.5" y="50"/><text fill="#000000" font-family="sans-serif" font-size="14" lengthAdjust="spacing" textLength="110" x="1107.5" y="71.5332">IWalletRepository</text><rect fill="#E2E2F0" height="31.6094" rx="2.5" ry="2.5" style="stroke:#181818;stroke-width:0.5;" width="124" x="1100.5" y="651.2578"/><text fill="#000000" font-family="sans-serif" font-size="14" lengthAdjust="spacing" textLength="110" x="1107.5" y="672.791">IWalletRepository</text><rect fill="#FFFFFF" height="527.2969" style="stroke:#181818;stroke-width:1.0;" width="10" x="442.5" y="114.9609"/><rect fill="#FFFFFF" height="30.3516" style="stroke:#181818;stroke-width:1.0;" width="10" x="702.5" y="145.3125"/><rect fill="#FFFFFF" height="30.3516" style="stroke:#181818;stroke-width:1.0;" width="10" x="702.5" y="206.0156"/><rect fill="#FFFFFF" height="30.3516" style="stroke:#181818;stroke-width:1.0;" width="10" x="839" y="266.7188"/><rect fill="#FFFFFF" height="30.3516" style="stroke:#181818;stroke-width:1.0;" width="10" x="1005.5" y="445.1484"/><rect fill="#FFFFFF" height="30.3516" style="stroke:#181818;stroke-width:1.0;" width="10" x="1157.5" y="505.8516"/><rect fill="#FFFFFF" height="30.3516" style="stroke:#181818;stroke-width:1.0;" width="10" x="1157.5" y="566.5547"/><polygon fill="#181818" points="430.5,110.9609,440.5,114.9609,430.5,118.9609,434.5,114.9609" style="stroke:#181818;stroke-width:1.0;"/><line style="stroke:#181818;stroke-width:1.0;" x1="37.5" x2="436.5" y1="114.9609" y2="114.9609"/><text fill="#000000" font-family="sans-serif" font-size="13" lengthAdjust="spacing" textLength="386" x="44.5" y="110.1045">WykonajTransakcje(userId, zrodloWaluty, docelowaWaluta, kwota)</text><polygon fill="#181818" points="690.5,141.3125,700.5,145.3125,690.5,149.3125,694.5,145.3125" style="stroke:#181818;stroke-width:1.0;"/><line style="stroke:#181818;stroke-width:1.0;" x1="452.5" x2="696.5" y1="145.3125" y2="145.3125"/><text fill="#000000" font-family="sans-serif" font-size="13" lengthAdjust="spacing" textLength="212" x="459.5" y="140.4561">GetUserWallet(userId, zrodloWaluty)</text><polygon fill="#181818" points="463.5,171.6641,453.5,175.6641,463.5,179.6641,459.5,175.6641" style="stroke:#181818;stroke-width:1.0;"/><line style="stroke:#181818;stroke-width:1.0;stroke-dasharray:2.0,2.0;" x1="457.5" x2="706.5" y1="175.6641" y2="175.6641"/><text fill="#000000" font-family="sans-serif" font-size="13" lengthAdjust="spacing" textLength="79" x="469.5" y="170.8076">ZrodloPortfela</text><polygon fill="#181818" points="690.5,202.0156,700.5,206.0156,690.5,210.0156,694.5,206.0156" style="stroke:#181818;stroke-width:1.0;"/><line style="stroke:#181818;stroke-width:1.0;" x1="452.5" x2="696.5" y1="206.0156" y2="206.0156"/><text fill="#000000" font-family="sans-serif" font-size="13" lengthAdjust="spacing" textLength="231" x="459.5" y="201.1592">GetUserWallet(userId, docelowaWaluta)</text><polygon fill="#181818" points="463.5,232.3672,453.5,236.3672,463.5,240.3672,459.5,236.3672" style="stroke:#181818;stroke-width:1.0;"/><line style="stroke:#181818;stroke-width:1.0;stroke-dasharray:2.0,2.0;" x1="457.5" x2="706.5" y1="236.3672" y2="236.3672"/><text fill="#000000" font-family="sans-serif" font-size="13" lengthAdjust="spacing" textLength="93" x="469.5" y="231.5107">DocelowyPortfel</text><polygon fill="#181818" points="827,262.7188,837,266.7188,827,270.7188,831,266.7188" style="stroke:#181818;stroke-width:1.0;"/><line style="stroke:#181818;stroke-width:1.0;" x1="452.5" x2="833" y1="266.7188" y2="266.7188"/><text fill="#000000" font-family="sans-serif" font-size="13" lengthAdjust="spacing" textLength="335" x="459.5" y="261.8623">GetCurrentExchangeRate(zrodloWaluty, docelowaWaluta)</text><polygon fill="#181818" points="463.5,293.0703,453.5,297.0703,463.5,301.0703,459.5,297.0703" style="stroke:#181818;stroke-width:1.0;"/><line style="stroke:#181818;stroke-width:1.0;stroke-dasharray:2.0,2.0;" x1="457.5" x2="843" y1="297.0703" y2="297.0703"/><text fill="#000000" font-family="sans-serif" font-size="13" lengthAdjust="spacing" textLength="82" x="469.5" y="292.2139">KursWymiany</text><path d="M10,312.0703 L71,312.0703 L71,320.4219 L61,330.4219 L10,330.4219 L10,312.0703 " fill="#EEEEEE" style="stroke:#000000;stroke-width:1.5;"/><rect fill="none" height="323.1875" style="stroke:#000000;stroke-width:1.5;" width="1224.5" x="10" y="312.0703"/><text fill="#000000" font-family="sans-serif" font-size="13" font-weight="bold" lengthAdjust="spacing" textLength="16" x="25" y="326.5654">alt</text><text fill="#000000" font-family="sans-serif" font-size="11" font-weight="bold" lengthAdjust="spacing" textLength="171" x="86" y="325.4893">[Je&#347;li &#347;rodki niewystarczaj&#261;ce]</text><polygon fill="#181818" points="48.5,348.7734,38.5,352.7734,48.5,356.7734,44.5,352.7734" style="stroke:#181818;stroke-width:1.0;"/><line style="stroke:#181818;stroke-width:1.0;stroke-dasharray:2.0,2.0;" x1="42.5" x2="441.5" y1="352.7734" y2="352.7734"/><text fill="#000000" font-family="sans-serif" font-size="13" lengthAdjust="spacing" textLength="208" x="54.5" y="347.917">Zg&#322;o&#347; b&#322;&#261;d: Niewystarczaj&#261;ce &#347;rodki</text><line style="stroke:#000000;stroke-width:1.0;stroke-dasharray:2.0,2.0;" x1="10" x2="1234.5" y1="361.7734" y2="361.7734"/><text fill="#000000" font-family="sans-serif" font-size="11" font-weight="bold" lengthAdjust="spacing" textLength="153" x="15" y="373.1924">[Je&#347;li waluty s&#261; takie same]</text><polygon fill="#181818" points="48.5,394.9609,38.5,398.9609,48.5,402.9609,44.5,398.9609" style="stroke:#181818;stroke-width:1.0;"/><line style="stroke:#181818;stroke-width:1.0;stroke-dasharray:2.0,2.0;" x1="42.5" x2="441.5" y1="398.9609" y2="398.9609"/><text fill="#000000" font-family="sans-serif" font-size="13" lengthAdjust="spacing" textLength="158" x="54.5" y="394.1045">Zg&#322;o&#347; b&#322;&#261;d: Te same waluty</text><line style="stroke:#000000;stroke-width:1.0;stroke-dasharray:2.0,2.0;" x1="10" x2="1234.5" y1="407.9609" y2="407.9609"/><text fill="#000000" font-family="sans-serif" font-size="11" font-weight="bold" lengthAdjust="spacing" textLength="119" x="15" y="419.3799">[W przeciwnym razie]</text><polygon fill="#181818" points="993.5,441.1484,1003.5,445.1484,993.5,449.1484,997.5,445.1484" style="stroke:#181818;stroke-width:1.0;"/><line style="stroke:#181818;stroke-width:1.0;" x1="452.5" x2="999.5" y1="445.1484" y2="445.1484"/><text fill="#000000" font-family="sans-serif" font-size="13" lengthAdjust="spacing" textLength="158" x="459.5" y="440.292">AddTransaction(transakcja)</text><polygon fill="#181818" points="463.5,471.5,453.5,475.5,463.5,479.5,459.5,475.5" style="stroke:#181818;stroke-width:1.0;"/><line style="stroke:#181818;stroke-width:1.0;stroke-dasharray:2.0,2.0;" x1="457.5" x2="1009.5" y1="475.5" y2="475.5"/><text fill="#000000" font-family="sans-serif" font-size="13" lengthAdjust="spacing" textLength="115" x="469.5" y="470.6436">TransakcjaZapisana</text><polygon fill="#181818" points="1145.5,501.8516,1155.5,505.8516,1145.5,509.8516,1149.5,505.8516" style="stroke:#181818;stroke-width:1.0;"/><line style="stroke:#181818;stroke-width:1.0;" x1="452.5" x2="1151.5" y1="505.8516" y2="505.8516"/><text fill="#000000" font-family="sans-serif" font-size="13" lengthAdjust="spacing" textLength="165" x="459.5" y="500.9951">UpdateWallet(ZrodloPortfela)</text><polygon fill="#181818" points="463.5,532.2031,453.5,536.2031,463.5,540.2031,459.5,536.2031" style="stroke:#181818;stroke-width:1.0;"/><line style="stroke:#181818;stroke-width:1.0;stroke-dasharray:2.0,2.0;" x1="457.5" x2="1161.5" y1="536.2031" y2="536.2031"/><text fill="#000000" font-family="sans-serif" font-size="13" lengthAdjust="spacing" textLength="168" x="469.5" y="531.3467">ZrodloPortfelaZaktualizowane</text><polygon fill="#181818" points="1145.5,562.5547,1155.5,566.5547,1145.5,570.5547,1149.5,566.5547" style="stroke:#181818;stroke-width:1.0;"/><line style="stroke:#181818;stroke-width:1.0;" x1="452.5" x2="1151.5" y1="566.5547" y2="566.5547"/><text fill="#000000" font-family="sans-serif" font-size="13" lengthAdjust="spacing" textLength="179" x="459.5" y="561.6982">UpdateWallet(DocelowyPortfel)</text><polygon fill="#181818" points="463.5,592.9063,453.5,596.9063,463.5,600.9063,459.5,596.9063" style="stroke:#181818;stroke-width:1.0;"/><line style="stroke:#181818;stroke-width:1.0;stroke-dasharray:2.0,2.0;" x1="457.5" x2="1161.5" y1="596.9063" y2="596.9063"/><text fill="#000000" font-family="sans-serif" font-size="13" lengthAdjust="spacing" textLength="182" x="469.5" y="592.0498">DocelowyPortfelZaktualizowany</text><polygon fill="#181818" points="48.5,623.2578,38.5,627.2578,48.5,631.2578,44.5,627.2578" style="stroke:#181818;stroke-width:1.0;"/><line style="stroke:#181818;stroke-width:1.0;stroke-dasharray:2.0,2.0;" x1="42.5" x2="441.5" y1="627.2578" y2="627.2578"/><text fill="#000000" font-family="sans-serif" font-size="13" lengthAdjust="spacing" textLength="140" x="54.5" y="622.4014">PotwierdzenieTransakcji</text><!--SRC=[fLHBRjim4Dtp58EiNC2vW1O1YhOeqW95a2OmuDrKcYQqP58WgQZICe1FuUjOzoefsGv5Kq5hUsDmDFFclVbXQgI2HqqAK4Db_rc9ol2KboWCN3qe51fJmwNuIUg5ftJb7Cs9UHosmA8WuqVKlcNi_ELF-epYYUxHa1z2f_PnuAt7xfvAgRaLquG4tPSWRg0NXDH78sEk471z4z6PmAB9fS3La3jFLpHpthVP75ebiq9QyCeqSyXaIeMiiN_Z7F9Q6lp07DgBLHIh8JkrEHQZsYNmbOnhs20YcjpBCgxxw0NN4mgNFTITLEOt5SWoca2xXEwuEXSI_Zo0DNlA_yquCcazxq-LKYICFw2pzvhioOWDRyGsAUbxfVIYMNCKZIyd1ikmCF2Dkct1eTjQUZa7mQbkj46LjhZQRQmNs5zClStlUcAx_jIzocuBlxhNtIPBu4S8SG1dL6Ww9ApxGe3URS1WpWaqhiz8zZ04xk6630ieLKifhqMp1eKjdyQz2HS-WOzPvfs7cJcigssIGucjOR_xGGfdcspIyGRW4akkKM0VxlKhH7z7mTlzIU2np6pqVcN6wnZGzwwMixyz_t6xbvYR2WlUsY4M5DBtR-8Pp8Ezl9XwW3VYtfp3_JYFTzBKd5JMajsSOrljg8kCiNW_zo1_0G00]--></g></svg>