<?xml version="1.0" encoding="us-ascii" standalone="no"?><svg xmlns="http://www.w3.org/2000/svg" xmlns:xlink="http://www.w3.org/1999/xlink" contentStyleType="text/css" height="566px" preserveAspectRatio="none" style="width:1125px;height:566px;background:#FFFFFF;" version="1.1" viewBox="0 0 1125 566" width="1125px" zoomAndPan="magnify"><defs/><g><rect fill="#FFFFFF" height="359.7031" style="stroke:#181818;stroke-width:1.0;" width="10" x="372.5" y="114.9609"/><rect fill="#FFFFFF" height="30.3516" style="stroke:#181818;stroke-width:1.0;" width="10" x="730.5" y="206.0156"/><rect fill="#FFFFFF" height="30.3516" style="stroke:#181818;stroke-width:1.0;" width="10" x="883.5" y="292.0703"/><rect fill="#FFFFFF" height="30.3516" style="stroke:#181818;stroke-width:1.0;" width="10" x="1031.5" y="145.3125"/><rect fill="#FFFFFF" height="30.3516" style="stroke:#181818;stroke-width:1.0;" width="10" x="1031.5" y="352.7734"/><rect fill="none" height="216.2969" style="stroke:#000000;stroke-width:1.5;" width="1108" x="10" y="251.3672"/><line style="stroke:#181818;stroke-width:0.5;stroke-dasharray:5.0,5.0;" x1="37" x2="37" y1="82.6094" y2="484.6641"/><line style="stroke:#181818;stroke-width:0.5;stroke-dasharray:5.0,5.0;" x1="377" x2="377" y1="82.6094" y2="484.6641"/><line style="stroke:#181818;stroke-width:0.5;stroke-dasharray:5.0,5.0;" x1="735" x2="735" y1="82.6094" y2="484.6641"/><line style="stroke:#181818;stroke-width:0.5;stroke-dasharray:5.0,5.0;" x1="888" x2="888" y1="82.6094" y2="484.6641"/><line style="stroke:#181818;stroke-width:0.5;stroke-dasharray:5.0,5.0;" x1="1036" x2="1036" y1="82.6094" y2="484.6641"/><text fill="#000000" font-family="sans-serif" font-size="14" lengthAdjust="spacing" textLength="29" x="20" y="79.5332">User</text><ellipse cx="37.5" cy="13.5" fill="#E2E2F0" rx="8" ry="8" style="stroke:#181818;stroke-width:0.5;"/><path d="M37.5,21.5 L37.5,48.5 M24.5,29.5 L50.5,29.5 M37.5,48.5 L24.5,63.5 M37.5,48.5 L50.5,63.5 " fill="none" style="stroke:#181818;stroke-width:0.5;"/><text fill="#000000" font-family="sans-serif" font-size="14" lengthAdjust="spacing" textLength="29" x="20" y="498.1973">User</text><ellipse cx="37.5" cy="509.7734" fill="#E2E2F0" rx="8" ry="8" style="stroke:#181818;stroke-width:0.5;"/><path d="M37.5,517.7734 L37.5,544.7734 M24.5,525.7734 L50.5,525.7734 M37.5,544.7734 L24.5,559.7734 M37.5,544.7734 L50.5,559.7734 " fill="none" style="stroke:#181818;stroke-width:0.5;"/><rect fill="#E2E2F0" height="31.6094" rx="2.5" ry="2.5" style="stroke:#181818;stroke-width:0.5;" width="119" x="318" y="50"/><text fill="#000000" font-family="sans-serif" font-size="14" lengthAdjust="spacing" textLength="105" x="325" y="71.5332">UserAlertService</text><rect fill="#E2E2F0" height="31.6094" rx="2.5" ry="2.5" style="stroke:#181818;stroke-width:0.5;" width="119" x="318" y="483.6641"/><text fill="#000000" font-family="sans-serif" font-size="14" lengthAdjust="spacing" textLength="105" x="325" y="505.1973">UserAlertService</text><rect fill="#E2E2F0" height="31.6094" rx="2.5" ry="2.5" style="stroke:#181818;stroke-width:0.5;" width="153" x="659" y="50"/><text fill="#000000" font-family="sans-serif" font-size="14" lengthAdjust="spacing" textLength="139" x="666" y="71.5332">ExchangeRateService</text><rect fill="#E2E2F0" height="31.6094" rx="2.5" ry="2.5" style="stroke:#181818;stroke-width:0.5;" width="153" x="659" y="483.6641"/><text fill="#000000" font-family="sans-serif" font-size="14" lengthAdjust="spacing" textLength="139" x="666" y="505.1973">ExchangeRateService</text><rect fill="#E2E2F0" height="31.6094" rx="2.5" ry="2.5" style="stroke:#181818;stroke-width:0.5;" width="133" x="822" y="50"/><text fill="#000000" font-family="sans-serif" font-size="14" lengthAdjust="spacing" textLength="119" x="829" y="71.5332">INotificationService</text><rect fill="#E2E2F0" height="31.6094" rx="2.5" ry="2.5" style="stroke:#181818;stroke-width:0.5;" width="133" x="822" y="483.6641"/><text fill="#000000" font-family="sans-serif" font-size="14" lengthAdjust="spacing" textLength="119" x="829" y="505.1973">INotificationService</text><rect fill="#E2E2F0" height="31.6094" rx="2.5" ry="2.5" style="stroke:#181818;stroke-width:0.5;" width="143" x="965" y="50"/><text fill="#000000" font-family="sans-serif" font-size="14" lengthAdjust="spacing" textLength="129" x="972" y="71.5332">IUserAlertRepository</text><rect fill="#E2E2F0" height="31.6094" rx="2.5" ry="2.5" style="stroke:#181818;stroke-width:0.5;" width="143" x="965" y="483.6641"/><text fill="#000000" font-family="sans-serif" font-size="14" lengthAdjust="spacing" textLength="129" x="972" y="505.1973">IUserAlertRepository</text><rect fill="#FFFFFF" height="359.7031" style="stroke:#181818;stroke-width:1.0;" width="10" x="372.5" y="114.9609"/><rect fill="#FFFFFF" height="30.3516" style="stroke:#181818;stroke-width:1.0;" width="10" x="730.5" y="206.0156"/><rect fill="#FFFFFF" height="30.3516" style="stroke:#181818;stroke-width:1.0;" width="10" x="883.5" y="292.0703"/><rect fill="#FFFFFF" height="30.3516" style="stroke:#181818;stroke-width:1.0;" width="10" x="1031.5" y="145.3125"/><rect fill="#FFFFFF" height="30.3516" style="stroke:#181818;stroke-width:1.0;" width="10" x="1031.5" y="352.7734"/><polygon fill="#181818" points="360.5,110.9609,370.5,114.9609,360.5,118.9609,364.5,114.9609" style="stroke:#181818;stroke-width:1.0;"/><line style="stroke:#181818;stroke-width:1.0;" x1="37.5" x2="366.5" y1="114.9609" y2="114.9609"/><text fill="#000000" font-family="sans-serif" font-size="13" lengthAdjust="spacing" textLength="209" x="44.5" y="110.1045">SprawdzAlertCenowy(userId, alertId)</text><polygon fill="#181818" points="1019.5,141.3125,1029.5,145.3125,1019.5,149.3125,1023.5,145.3125" style="stroke:#181818;stroke-width:1.0;"/><line style="stroke:#181818;stroke-width:1.0;" x1="382.5" x2="1025.5" y1="145.3125" y2="145.3125"/><text fill="#000000" font-family="sans-serif" font-size="13" lengthAdjust="spacing" textLength="144" x="389.5" y="140.4561">GetUserAlertById(alertId)</text><polygon fill="#181818" points="393.5,171.6641,383.5,175.6641,393.5,179.6641,389.5,175.6641" style="stroke:#181818;stroke-width:1.0;"/><line style="stroke:#181818;stroke-width:1.0;stroke-dasharray:2.0,2.0;" x1="387.5" x2="1035.5" y1="175.6641" y2="175.6641"/><text fill="#000000" font-family="sans-serif" font-size="13" lengthAdjust="spacing" textLength="101" x="399.5" y="170.8076">AlertUzytkownika</text><polygon fill="#181818" points="718.5,202.0156,728.5,206.0156,718.5,210.0156,722.5,206.0156" style="stroke:#181818;stroke-width:1.0;"/><line style="stroke:#181818;stroke-width:1.0;" x1="382.5" x2="724.5" y1="206.0156" y2="206.0156"/><text fill="#000000" font-family="sans-serif" font-size="13" lengthAdjust="spacing" textLength="329" x="389.5" y="201.1592">GetCurrentExchangeRate(baseCurrency, targetCurrency)</text><polygon fill="#181818" points="393.5,232.3672,383.5,236.3672,393.5,240.3672,389.5,236.3672" style="stroke:#181818;stroke-width:1.0;"/><line style="stroke:#181818;stroke-width:1.0;stroke-dasharray:2.0,2.0;" x1="387.5" x2="734.5" y1="236.3672" y2="236.3672"/><text fill="#000000" font-family="sans-serif" font-size="13" lengthAdjust="spacing" textLength="133" x="399.5" y="231.5107">AktualnyKursWymiany</text><path d="M10,251.3672 L71,251.3672 L71,259.7188 L61,269.7188 L10,269.7188 L10,251.3672 " fill="#EEEEEE" style="stroke:#000000;stroke-width:1.5;"/><rect fill="none" height="216.2969" style="stroke:#000000;stroke-width:1.5;" width="1108" x="10" y="251.3672"/><text fill="#000000" font-family="sans-serif" font-size="13" font-weight="bold" lengthAdjust="spacing" textLength="16" x="25" y="265.8623">alt</text><text fill="#000000" font-family="sans-serif" font-size="11" font-weight="bold" lengthAdjust="spacing" textLength="247" x="86" y="264.7861">[Je&#347;li alert jest aktywny i warunki spe&#322;nione]</text><polygon fill="#181818" points="871.5,288.0703,881.5,292.0703,871.5,296.0703,875.5,292.0703" style="stroke:#181818;stroke-width:1.0;"/><line style="stroke:#181818;stroke-width:1.0;" x1="382.5" x2="877.5" y1="292.0703" y2="292.0703"/><text fill="#000000" font-family="sans-serif" font-size="13" lengthAdjust="spacing" textLength="233" x="389.5" y="287.2139">SendNotification(userId, "Alert cenowy!")</text><polygon fill="#181818" points="393.5,318.4219,383.5,322.4219,393.5,326.4219,389.5,322.4219" style="stroke:#181818;stroke-width:1.0;"/><line style="stroke:#181818;stroke-width:1.0;stroke-dasharray:2.0,2.0;" x1="387.5" x2="887.5" y1="322.4219" y2="322.4219"/><text fill="#000000" font-family="sans-serif" font-size="13" lengthAdjust="spacing" textLength="138" x="399.5" y="317.5654">PowiadomienieWys&#322;ane</text><polygon fill="#181818" points="1019.5,348.7734,1029.5,352.7734,1019.5,356.7734,1023.5,352.7734" style="stroke:#181818;stroke-width:1.0;"/><line style="stroke:#181818;stroke-width:1.0;" x1="382.5" x2="1025.5" y1="352.7734" y2="352.7734"/><text fill="#000000" font-family="sans-serif" font-size="13" lengthAdjust="spacing" textLength="157" x="389.5" y="347.917">DeactivateUserAlert(alertId)</text><polygon fill="#181818" points="393.5,379.125,383.5,383.125,393.5,387.125,389.5,383.125" style="stroke:#181818;stroke-width:1.0;"/><line style="stroke:#181818;stroke-width:1.0;stroke-dasharray:2.0,2.0;" x1="387.5" x2="1035.5" y1="383.125" y2="383.125"/><text fill="#000000" font-family="sans-serif" font-size="13" lengthAdjust="spacing" textLength="114" x="399.5" y="378.2686">AlertDeaktywowany</text><polygon fill="#181818" points="48.5,409.4766,38.5,413.4766,48.5,417.4766,44.5,413.4766" style="stroke:#181818;stroke-width:1.0;"/><line style="stroke:#181818;stroke-width:1.0;stroke-dasharray:2.0,2.0;" x1="42.5" x2="371.5" y1="413.4766" y2="413.4766"/><text fill="#000000" font-family="sans-serif" font-size="13" lengthAdjust="spacing" textLength="138" x="54.5" y="408.6201">PowiadomienieWys&#322;ane</text><line style="stroke:#000000;stroke-width:1.0;stroke-dasharray:2.0,2.0;" x1="10" x2="1118" y1="422.4766" y2="422.4766"/><text fill="#000000" font-family="sans-serif" font-size="11" font-weight="bold" lengthAdjust="spacing" textLength="274" x="15" y="433.8955">[Je&#347;li alert nieaktywny lub warunki nie spe&#322;nione]</text><polygon fill="#181818" points="48.5,455.6641,38.5,459.6641,48.5,463.6641,44.5,459.6641" style="stroke:#181818;stroke-width:1.0;"/><line style="stroke:#181818;stroke-width:1.0;stroke-dasharray:2.0,2.0;" x1="42.5" x2="371.5" y1="459.6641" y2="459.6641"/><text fill="#000000" font-family="sans-serif" font-size="13" lengthAdjust="spacing" textLength="311" x="54.5" y="454.8076">Brak akcji (Alert nieaktywny lub warunki niespe&#322;nione)</text><!--SRC=[XLFBJiCm4BpxAvQUMWb-W0CIBw62X108SLwS1PO4Ex8TWZdo6tnF_mixj25E7PfBv8btTdPdWj9f0_UM3A259hn5ZSQnv1gLWrdySboHSNTatbdIR7Dj2AObvn_o1TKptQAZOHLjusdXybexVcA9ZhKQLgfjV5JPoxobMbiEC_bKQSI5Y4SuEDeQu13kQeDjyTc1fwHqw-VnqhBO1upOibW8b8xVW_Zj-SKOIPh4teTmGQvNUUANnVmVtavjSeA3hEpkTF_fNQbRnIMAWYROiX8pbdH2JnjZIBcXa_D7jFIBIxyF3itpvfxqWnboBcUmgNbArs2b_5LZx8D_OrH-E5AEN63bu99MtnN_MWMlP1rWwNohF32qQ1fLCjYQLbygH8W4X2UtZqpGGZH85SDazi6OTUKWkxZipHOTRQyr5zfu8ODFBED6juo5VcDIJ0_UhhvmhNsmaboRoVb6aJphQVfa_gKo6IRDKaA_AvsXIRH2jz7BaVXHHFEorzHJ-w3AKkf_-BfnlseUU_y3l3i3VRCJWsK8aNnbc1_leFrZNOWG5f7z2zSjVW00]--></g></svg>