<?xml version="1.0" encoding="us-ascii" standalone="no"?><svg xmlns="http://www.w3.org/2000/svg" xmlns:xlink="http://www.w3.org/1999/xlink" contentStyleType="text/css" height="886px" preserveAspectRatio="none" style="width:5687px;height:886px;background:#FFFFFF;" version="1.1" viewBox="0 0 5687 886" width="5687px" zoomAndPan="magnify"><defs/><g><!--cluster Application--><g id="cluster_Application"><path d="M8.5,6 L87.5,6 A3.75,3.75 0 0 1 90,8.5 L97,29.6094 L4419.5,29.6094 A2.5,2.5 0 0 1 4422,32.1094 L4422,675.5 A2.5,2.5 0 0 1 4419.5,678 L8.5,678 A2.5,2.5 0 0 1 6,675.5 L6,8.5 A2.5,2.5 0 0 1 8.5,6 " fill="none" style="stroke:#000000;stroke-width:1.5;"/><line style="stroke:#000000;stroke-width:1.5;" x1="6" x2="97" y1="29.6094" y2="29.6094"/><text fill="#000000" font-family="sans-serif" font-size="14" font-weight="bold" lengthAdjust="spacing" textLength="78" x="10" y="22.5332">Application</text></g><!--cluster Interfaces--><g id="cluster_Interfaces"><path d="M715.5,50 L787.5,50 A3.75,3.75 0 0 1 790,52.5 L797,73.6094 L3676.5,73.6094 A2.5,2.5 0 0 1 3679,76.1094 L3679,362.5 A2.5,2.5 0 0 1 3676.5,365 L715.5,365 A2.5,2.5 0 0 1 713,362.5 L713,52.5 A2.5,2.5 0 0 1 715.5,50 " fill="none" style="stroke:#000000;stroke-width:1.5;"/><line style="stroke:#000000;stroke-width:1.5;" x1="713" x2="797" y1="73.6094" y2="73.6094"/><text fill="#000000" font-family="sans-serif" font-size="14" font-weight="bold" lengthAdjust="spacing" textLength="71" x="717" y="66.5332">Interfaces</text></g><!--cluster Services--><g id="cluster_Services"><path d="M32.5,413 L95.5,413 A3.75,3.75 0 0 1 98,415.5 L105,436.6094 L4395.5,436.6094 A2.5,2.5 0 0 1 4398,439.1094 L4398,651.5 A2.5,2.5 0 0 1 4395.5,654 L32.5,654 A2.5,2.5 0 0 1 30,651.5 L30,415.5 A2.5,2.5 0 0 1 32.5,413 " fill="none" style="stroke:#000000;stroke-width:1.5;"/><line style="stroke:#000000;stroke-width:1.5;" x1="30" x2="105" y1="436.6094" y2="436.6094"/><text fill="#000000" font-family="sans-serif" font-size="14" font-weight="bold" lengthAdjust="spacing" textLength="62" x="34" y="429.5332">Services</text></g><!--cluster Domain--><g id="cluster_Domain"><path d="M1903.5,711 L1956.5,711 A3.75,3.75 0 0 1 1959,713.5 L1966,734.6094 L2698.5,734.6094 A2.5,2.5 0 0 1 2701,737.1094 L2701,876.5 A2.5,2.5 0 0 1 2698.5,879 L1903.5,879 A2.5,2.5 0 0 1 1901,876.5 L1901,713.5 A2.5,2.5 0 0 1 1903.5,711 " fill="none" style="stroke:#000000;stroke-width:1.5;"/><line style="stroke:#000000;stroke-width:1.5;" x1="1901" x2="1966" y1="734.6094" y2="734.6094"/><text fill="#000000" font-family="sans-serif" font-size="14" font-weight="bold" lengthAdjust="spacing" textLength="52" x="1905" y="727.5332">Domain</text></g><!--cluster Entities--><g id="cluster_Entities"><path d="M1927.5,755 L1981.5,755 A3.75,3.75 0 0 1 1984,757.5 L1991,778.6094 L2674.5,778.6094 A2.5,2.5 0 0 1 2677,781.1094 L2677,852.5 A2.5,2.5 0 0 1 2674.5,855 L1927.5,855 A2.5,2.5 0 0 1 1925,852.5 L1925,757.5 A2.5,2.5 0 0 1 1927.5,755 " fill="none" style="stroke:#000000;stroke-width:1.5;"/><line style="stroke:#000000;stroke-width:1.5;" x1="1925" x2="1991" y1="778.6094" y2="778.6094"/><text fill="#000000" font-family="sans-serif" font-size="14" font-weight="bold" lengthAdjust="spacing" textLength="53" x="1929" y="771.5332">Entities</text></g><!--cluster Infrastructure--><g id="cluster_Infrastructure"><path d="M4448.5,50 L4546.5,50 A3.75,3.75 0 0 1 4549,52.5 L4556,73.6094 L5677.5,73.6094 A2.5,2.5 0 0 1 5680,76.1094 L5680,377.5 A2.5,2.5 0 0 1 5677.5,380 L4448.5,380 A2.5,2.5 0 0 1 4446,377.5 L4446,52.5 A2.5,2.5 0 0 1 4448.5,50 " fill="none" style="stroke:#000000;stroke-width:1.5;"/><line style="stroke:#000000;stroke-width:1.5;" x1="4446" x2="4556" y1="73.6094" y2="73.6094"/><text fill="#000000" font-family="sans-serif" font-size="14" font-weight="bold" lengthAdjust="spacing" textLength="97" x="4450" y="66.5332">Infrastructure</text></g><!--cluster Repositories--><g id="cluster_Repositories"><path d="M4472.5,94 L4563.5,94 A3.75,3.75 0 0 1 4566,96.5 L4573,117.6094 L5653.5,117.6094 A2.5,2.5 0 0 1 5656,120.1094 L5656,353.5 A2.5,2.5 0 0 1 5653.5,356 L4472.5,356 A2.5,2.5 0 0 1 4470,353.5 L4470,96.5 A2.5,2.5 0 0 1 4472.5,94 " fill="none" style="stroke:#000000;stroke-width:1.5;"/><line style="stroke:#000000;stroke-width:1.5;" x1="4470" x2="4573" y1="117.6094" y2="117.6094"/><text fill="#000000" font-family="sans-serif" font-size="14" font-weight="bold" lengthAdjust="spacing" textLength="90" x="4474" y="110.5332">Repositories</text></g><!--class IService--><g id="elem_IService"><rect codeLine="4" fill="#F1F1F1" height="136.0469" id="IService" rx="2.5" ry="2.5" style="stroke:#181818;stroke-width:0.5;" width="261" x="2205.5" y="86"/><ellipse cx="2301.25" cy="102" fill="#B4A7E5" rx="11" ry="11" style="stroke:#181818;stroke-width:1.0;"/><path d="M2302.2031,98.6406 L2302.2031,105.2969 L2303.9219,105.2969 Q2304.5313,105.2969 2304.7969,105.5313 Q2305.0625,105.7656 2305.0625,106.1563 Q2305.0625,106.5313 2304.7969,106.7656 Q2304.5313,107 2303.9219,107 L2298.7813,107 Q2298.1719,107 2297.9063,106.7656 Q2297.6406,106.5313 2297.6406,106.1406 Q2297.6406,105.7656 2297.9063,105.5313 Q2298.1719,105.2969 2298.7813,105.2969 L2300.5,105.2969 L2300.5,98.6406 L2298.7813,98.6406 Q2298.1719,98.6406 2297.9063,98.4063 Q2297.6406,98.1719 2297.6406,97.7813 Q2297.6406,97.4063 2297.9063,97.1719 Q2298.1719,96.9375 2298.7813,96.9375 L2303.9219,96.9375 Q2304.5313,96.9375 2304.7969,97.1719 Q2305.0625,97.4063 2305.0625,97.7813 Q2305.0625,98.1719 2304.7969,98.4063 Q2304.5313,98.6406 2303.9219,98.6406 L2302.2031,98.6406 Z " fill="#000000"/><text fill="#000000" font-family="sans-serif" font-size="14" font-style="italic" lengthAdjust="spacing" textLength="50" x="2321.75" y="107.7285">IService</text><rect fill="#FFFFFF" height="17.0938" style="stroke:#181818;stroke-width:1.0;stroke-dasharray:2.0,2.0;" width="9" x="2460.5" y="83"/><text fill="#000000" font-family="sans-serif" font-size="12" font-style="italic" lengthAdjust="spacing" textLength="7" x="2461.5" y="96.457">T</text><line style="stroke:#181818;stroke-width:0.5;" x1="2206.5" x2="2465.5" y1="118" y2="118"/><line style="stroke:#181818;stroke-width:0.5;" x1="2206.5" x2="2465.5" y1="126" y2="126"/><text fill="#000000" font-family="sans-serif" font-size="14" lengthAdjust="spacing" textLength="196" x="2211.5" y="144.5332">+Task&lt;T&gt; GetByIdAsync(int id)</text><text fill="#000000" font-family="sans-serif" font-size="14" lengthAdjust="spacing" textLength="249" x="2211.5" y="162.1426">+Task&lt;IEnumerable&lt;T&gt;&gt; GetAllAsync()</text><text fill="#000000" font-family="sans-serif" font-size="14" lengthAdjust="spacing" textLength="163" x="2211.5" y="179.752">+Task AddAsync(T entity)</text><text fill="#000000" font-family="sans-serif" font-size="14" lengthAdjust="spacing" textLength="183" x="2211.5" y="197.3613">+Task UpdateAsync(T entity)</text><text fill="#000000" font-family="sans-serif" font-size="14" lengthAdjust="spacing" textLength="179" x="2211.5" y="214.9707">+Task DeleteAsync(T entity)</text></g><!--class ICurrencyService--><g id="elem_ICurrencyService"><rect codeLine="12" fill="#F1F1F1" height="65.6094" id="ICurrencyService" rx="2.5" ry="2.5" style="stroke:#181818;stroke-width:0.5;" width="345" x="729.5" y="283"/><ellipse cx="843.75" cy="299" fill="#B4A7E5" rx="11" ry="11" style="stroke:#181818;stroke-width:1.0;"/><path d="M844.7031,295.6406 L844.7031,302.2969 L846.4219,302.2969 Q847.0313,302.2969 847.2969,302.5313 Q847.5625,302.7656 847.5625,303.1563 Q847.5625,303.5313 847.2969,303.7656 Q847.0313,304 846.4219,304 L841.2813,304 Q840.6719,304 840.4063,303.7656 Q840.1406,303.5313 840.1406,303.1406 Q840.1406,302.7656 840.4063,302.5313 Q840.6719,302.2969 841.2813,302.2969 L843,302.2969 L843,295.6406 L841.2813,295.6406 Q840.6719,295.6406 840.4063,295.4063 Q840.1406,295.1719 840.1406,294.7813 Q840.1406,294.4063 840.4063,294.1719 Q840.6719,293.9375 841.2813,293.9375 L846.4219,293.9375 Q847.0313,293.9375 847.2969,294.1719 Q847.5625,294.4063 847.5625,294.7813 Q847.5625,295.1719 847.2969,295.4063 Q847.0313,295.6406 846.4219,295.6406 L844.7031,295.6406 Z " fill="#000000"/><text fill="#000000" font-family="sans-serif" font-size="14" font-style="italic" lengthAdjust="spacing" textLength="108" x="864.25" y="304.7285">ICurrencyService</text><line style="stroke:#181818;stroke-width:0.5;" x1="730.5" x2="1073.5" y1="315" y2="315"/><line style="stroke:#181818;stroke-width:0.5;" x1="730.5" x2="1073.5" y1="323" y2="323"/><text fill="#000000" font-family="sans-serif" font-size="14" lengthAdjust="spacing" textLength="333" x="735.5" y="341.5332">+Task&lt;Currency&gt; GetBySymbolAsync(string symbol)</text></g><!--class IExchangeRateService--><g id="elem_IExchangeRateService"><rect codeLine="16" fill="#F1F1F1" height="65.6094" id="IExchangeRateService" rx="2.5" ry="2.5" style="stroke:#181818;stroke-width:0.5;" width="695" x="1109.5" y="283"/><ellipse cx="1381.75" cy="299" fill="#B4A7E5" rx="11" ry="11" style="stroke:#181818;stroke-width:1.0;"/><path d="M1382.7031,295.6406 L1382.7031,302.2969 L1384.4219,302.2969 Q1385.0313,302.2969 1385.2969,302.5313 Q1385.5625,302.7656 1385.5625,303.1563 Q1385.5625,303.5313 1385.2969,303.7656 Q1385.0313,304 1384.4219,304 L1379.2813,304 Q1378.6719,304 1378.4063,303.7656 Q1378.1406,303.5313 1378.1406,303.1406 Q1378.1406,302.7656 1378.4063,302.5313 Q1378.6719,302.2969 1379.2813,302.2969 L1381,302.2969 L1381,295.6406 L1379.2813,295.6406 Q1378.6719,295.6406 1378.4063,295.4063 Q1378.1406,295.1719 1378.1406,294.7813 Q1378.1406,294.4063 1378.4063,294.1719 Q1378.6719,293.9375 1379.2813,293.9375 L1384.4219,293.9375 Q1385.0313,293.9375 1385.2969,294.1719 Q1385.5625,294.4063 1385.5625,294.7813 Q1385.5625,295.1719 1385.2969,295.4063 Q1385.0313,295.6406 1384.4219,295.6406 L1382.7031,295.6406 Z " fill="#000000"/><text fill="#000000" font-family="sans-serif" font-size="14" font-style="italic" lengthAdjust="spacing" textLength="142" x="1402.25" y="304.7285">IExchangeRateService</text><line style="stroke:#181818;stroke-width:0.5;" x1="1110.5" x2="1803.5" y1="315" y2="315"/><line style="stroke:#181818;stroke-width:0.5;" x1="1110.5" x2="1803.5" y1="323" y2="323"/><text fill="#000000" font-family="sans-serif" font-size="14" lengthAdjust="spacing" textLength="683" x="1115.5" y="341.5332">+Task&lt;ExchangeRate&gt; GetByCurrencyPairAsync(string baseCurrencySymbol, string targetCurrencySymbol)</text></g><!--class ITransactionService--><g id="elem_ITransactionService"><rect codeLine="20" fill="#F1F1F1" height="65.6094" id="ITransactionService" rx="2.5" ry="2.5" style="stroke:#181818;stroke-width:0.5;" width="481" x="1839.5" y="283"/><ellipse cx="2013.25" cy="299" fill="#B4A7E5" rx="11" ry="11" style="stroke:#181818;stroke-width:1.0;"/><path d="M2014.2031,295.6406 L2014.2031,302.2969 L2015.9219,302.2969 Q2016.5313,302.2969 2016.7969,302.5313 Q2017.0625,302.7656 2017.0625,303.1563 Q2017.0625,303.5313 2016.7969,303.7656 Q2016.5313,304 2015.9219,304 L2010.7813,304 Q2010.1719,304 2009.9063,303.7656 Q2009.6406,303.5313 2009.6406,303.1406 Q2009.6406,302.7656 2009.9063,302.5313 Q2010.1719,302.2969 2010.7813,302.2969 L2012.5,302.2969 L2012.5,295.6406 L2010.7813,295.6406 Q2010.1719,295.6406 2009.9063,295.4063 Q2009.6406,295.1719 2009.6406,294.7813 Q2009.6406,294.4063 2009.9063,294.1719 Q2010.1719,293.9375 2010.7813,293.9375 L2015.9219,293.9375 Q2016.5313,293.9375 2016.7969,294.1719 Q2017.0625,294.4063 2017.0625,294.7813 Q2017.0625,295.1719 2016.7969,295.4063 Q2016.5313,295.6406 2015.9219,295.6406 L2014.2031,295.6406 Z " fill="#000000"/><text fill="#000000" font-family="sans-serif" font-size="14" font-style="italic" lengthAdjust="spacing" textLength="125" x="2033.75" y="304.7285">ITransactionService</text><line style="stroke:#181818;stroke-width:0.5;" x1="1840.5" x2="2319.5" y1="315" y2="315"/><line style="stroke:#181818;stroke-width:0.5;" x1="1840.5" x2="2319.5" y1="323" y2="323"/><text fill="#000000" font-family="sans-serif" font-size="14" lengthAdjust="spacing" textLength="469" x="1845.5" y="341.5332">+Task&lt;IEnumerable&lt;Transaction&gt;&gt; GetUserTransactionsAsync(int userId)</text></g><!--class IUserAlertService--><g id="elem_IUserAlertService"><rect codeLine="24" fill="#F1F1F1" height="65.6094" id="IUserAlertService" rx="2.5" ry="2.5" style="stroke:#181818;stroke-width:0.5;" width="474" x="2356" y="283"/><ellipse cx="2534.25" cy="299" fill="#B4A7E5" rx="11" ry="11" style="stroke:#181818;stroke-width:1.0;"/><path d="M2535.2031,295.6406 L2535.2031,302.2969 L2536.9219,302.2969 Q2537.5313,302.2969 2537.7969,302.5313 Q2538.0625,302.7656 2538.0625,303.1563 Q2538.0625,303.5313 2537.7969,303.7656 Q2537.5313,304 2536.9219,304 L2531.7813,304 Q2531.1719,304 2530.9063,303.7656 Q2530.6406,303.5313 2530.6406,303.1406 Q2530.6406,302.7656 2530.9063,302.5313 Q2531.1719,302.2969 2531.7813,302.2969 L2533.5,302.2969 L2533.5,295.6406 L2531.7813,295.6406 Q2531.1719,295.6406 2530.9063,295.4063 Q2530.6406,295.1719 2530.6406,294.7813 Q2530.6406,294.4063 2530.9063,294.1719 Q2531.1719,293.9375 2531.7813,293.9375 L2536.9219,293.9375 Q2537.5313,293.9375 2537.7969,294.1719 Q2538.0625,294.4063 2538.0625,294.7813 Q2538.0625,295.1719 2537.7969,295.4063 Q2537.5313,295.6406 2536.9219,295.6406 L2535.2031,295.6406 Z " fill="#000000"/><text fill="#000000" font-family="sans-serif" font-size="14" font-style="italic" lengthAdjust="spacing" textLength="109" x="2554.75" y="304.7285">IUserAlertService</text><line style="stroke:#181818;stroke-width:0.5;" x1="2357" x2="2829" y1="315" y2="315"/><line style="stroke:#181818;stroke-width:0.5;" x1="2357" x2="2829" y1="323" y2="323"/><text fill="#000000" font-family="sans-serif" font-size="14" lengthAdjust="spacing" textLength="462" x="2362" y="341.5332">+Task&lt;IEnumerable&lt;UserAlert&gt;&gt; GetUserAlertsByUserIdAsync(int userId)</text></g><!--class IUserService--><g id="elem_IUserService"><rect codeLine="28" fill="#F1F1F1" height="65.6094" id="IUserService" rx="2.5" ry="2.5" style="stroke:#181818;stroke-width:0.5;" width="353" x="2865.5" y="283"/><ellipse cx="2997.75" cy="299" fill="#B4A7E5" rx="11" ry="11" style="stroke:#181818;stroke-width:1.0;"/><path d="M2998.7031,295.6406 L2998.7031,302.2969 L3000.4219,302.2969 Q3001.0313,302.2969 3001.2969,302.5313 Q3001.5625,302.7656 3001.5625,303.1563 Q3001.5625,303.5313 3001.2969,303.7656 Q3001.0313,304 3000.4219,304 L2995.2813,304 Q2994.6719,304 2994.4063,303.7656 Q2994.1406,303.5313 2994.1406,303.1406 Q2994.1406,302.7656 2994.4063,302.5313 Q2994.6719,302.2969 2995.2813,302.2969 L2997,302.2969 L2997,295.6406 L2995.2813,295.6406 Q2994.6719,295.6406 2994.4063,295.4063 Q2994.1406,295.1719 2994.1406,294.7813 Q2994.1406,294.4063 2994.4063,294.1719 Q2994.6719,293.9375 2995.2813,293.9375 L3000.4219,293.9375 Q3001.0313,293.9375 3001.2969,294.1719 Q3001.5625,294.4063 3001.5625,294.7813 Q3001.5625,295.1719 3001.2969,295.4063 Q3001.0313,295.6406 3000.4219,295.6406 L2998.7031,295.6406 Z " fill="#000000"/><text fill="#000000" font-family="sans-serif" font-size="14" font-style="italic" lengthAdjust="spacing" textLength="80" x="3018.25" y="304.7285">IUserService</text><line style="stroke:#181818;stroke-width:0.5;" x1="2866.5" x2="3217.5" y1="315" y2="315"/><line style="stroke:#181818;stroke-width:0.5;" x1="2866.5" x2="3217.5" y1="323" y2="323"/><text fill="#000000" font-family="sans-serif" font-size="14" lengthAdjust="spacing" textLength="341" x="2871.5" y="341.5332">+Task&lt;User&gt; GetByUsernameAsync(string username)</text></g><!--class IWalletService--><g id="elem_IWalletService"><rect codeLine="32" fill="#F1F1F1" height="65.6094" id="IWalletService" rx="2.5" ry="2.5" style="stroke:#181818;stroke-width:0.5;" width="409" x="3253.5" y="283"/><ellipse cx="3408.75" cy="299" fill="#B4A7E5" rx="11" ry="11" style="stroke:#181818;stroke-width:1.0;"/><path d="M3409.7031,295.6406 L3409.7031,302.2969 L3411.4219,302.2969 Q3412.0313,302.2969 3412.2969,302.5313 Q3412.5625,302.7656 3412.5625,303.1563 Q3412.5625,303.5313 3412.2969,303.7656 Q3412.0313,304 3411.4219,304 L3406.2813,304 Q3405.6719,304 3405.4063,303.7656 Q3405.1406,303.5313 3405.1406,303.1406 Q3405.1406,302.7656 3405.4063,302.5313 Q3405.6719,302.2969 3406.2813,302.2969 L3408,302.2969 L3408,295.6406 L3406.2813,295.6406 Q3405.6719,295.6406 3405.4063,295.4063 Q3405.1406,295.1719 3405.1406,294.7813 Q3405.1406,294.4063 3405.4063,294.1719 Q3405.6719,293.9375 3406.2813,293.9375 L3411.4219,293.9375 Q3412.0313,293.9375 3412.2969,294.1719 Q3412.5625,294.4063 3412.5625,294.7813 Q3412.5625,295.1719 3412.2969,295.4063 Q3412.0313,295.6406 3411.4219,295.6406 L3409.7031,295.6406 Z " fill="#000000"/><text fill="#000000" font-family="sans-serif" font-size="14" font-style="italic" lengthAdjust="spacing" textLength="90" x="3429.25" y="304.7285">IWalletService</text><line style="stroke:#181818;stroke-width:0.5;" x1="3254.5" x2="3661.5" y1="315" y2="315"/><line style="stroke:#181818;stroke-width:0.5;" x1="3254.5" x2="3661.5" y1="323" y2="323"/><text fill="#000000" font-family="sans-serif" font-size="14" lengthAdjust="spacing" textLength="397" x="3259.5" y="341.5332">+Task&lt;IEnumerable&lt;Wallet&gt;&gt; GetUserWalletsAsync(int userId)</text></g><!--class CurrencyService--><g id="elem_CurrencyService"><rect codeLine="45" fill="#F1F1F1" height="188.875" id="CurrencyService" rx="2.5" ry="2.5" style="stroke:#181818;stroke-width:0.5;" width="391" x="46.5" y="449"/><ellipse cx="185.25" cy="465" fill="#ADD1B2" rx="11" ry="11" style="stroke:#181818;stroke-width:1.0;"/><path d="M188.0156,460.875 Q188.1719,460.6563 188.3594,460.5469 Q188.5469,460.4375 188.7656,460.4375 Q189.1406,460.4375 189.375,460.7031 Q189.6094,460.9531 189.6094,461.5625 L189.6094,463.0156 Q189.6094,463.625 189.375,463.8906 Q189.1406,464.1563 188.7656,464.1563 Q188.4219,464.1563 188.2188,463.9531 Q188.0156,463.7656 187.9063,463.25 Q187.8594,462.8906 187.6719,462.7031 Q187.3438,462.3281 186.7344,462.1094 Q186.125,461.8906 185.5,461.8906 Q184.7344,461.8906 184.0938,462.2188 Q183.4688,462.5469 182.9688,463.2969 Q182.4844,464.0469 182.4844,465.0781 L182.4844,466.1719 Q182.4844,467.4063 183.375,468.2344 Q184.2656,469.0469 185.8594,469.0469 Q186.7969,469.0469 187.4531,468.7969 Q187.8438,468.6406 188.2656,468.2031 Q188.5313,467.9375 188.6719,467.8594 Q188.8281,467.7813 189.0313,467.7813 Q189.3594,467.7813 189.6094,468.0469 Q189.875,468.2969 189.875,468.6406 Q189.875,468.9844 189.5313,469.3906 Q189.0313,469.9688 188.2344,470.2969 Q187.1563,470.75 185.8594,470.75 Q184.3438,470.75 183.1406,470.125 Q182.1563,469.625 181.4688,468.5625 Q180.7813,467.4844 180.7813,466.2031 L180.7813,465.0469 Q180.7813,463.7188 181.3906,462.5781 Q182.0156,461.4219 183.1094,460.8125 Q184.2031,460.1875 185.4375,460.1875 Q186.1719,460.1875 186.8125,460.3594 Q187.4688,460.5156 188.0156,460.875 Z " fill="#000000"/><text fill="#000000" font-family="sans-serif" font-size="14" lengthAdjust="spacing" textLength="105" x="205.75" y="470.7285">CurrencyService</text><line style="stroke:#181818;stroke-width:0.5;" x1="47.5" x2="436.5" y1="481" y2="481"/><text fill="#000000" font-family="sans-serif" font-size="14" lengthAdjust="spacing" textLength="269" x="52.5" y="499.5332">-ICurrencyRepository _currencyRepository</text><line style="stroke:#181818;stroke-width:0.5;" x1="47.5" x2="436.5" y1="506.6094" y2="506.6094"/><text fill="#000000" font-family="sans-serif" font-size="14" lengthAdjust="spacing" textLength="379" x="52.5" y="525.1426">+CurrencyService(ICurrencyRepository currencyRepository)</text><text fill="#000000" font-family="sans-serif" font-size="14" lengthAdjust="spacing" textLength="245" x="52.5" y="542.752">+Task&lt;Currency&gt; GetByIdAsync(int id)</text><text fill="#000000" font-family="sans-serif" font-size="14" lengthAdjust="spacing" textLength="298" x="52.5" y="560.3613">+Task&lt;IEnumerable&lt;Currency&gt;&gt; GetAllAsync()</text><text fill="#000000" font-family="sans-serif" font-size="14" lengthAdjust="spacing" textLength="212" x="52.5" y="577.9707">+Task AddAsync(Currency entity)</text><text fill="#000000" font-family="sans-serif" font-size="14" lengthAdjust="spacing" textLength="232" x="52.5" y="595.5801">+Task UpdateAsync(Currency entity)</text><text fill="#000000" font-family="sans-serif" font-size="14" lengthAdjust="spacing" textLength="228" x="52.5" y="613.1895">+Task DeleteAsync(Currency entity)</text><text fill="#000000" font-family="sans-serif" font-size="14" lengthAdjust="spacing" textLength="333" x="52.5" y="630.7988">+Task&lt;Currency&gt; GetBySymbolAsync(string symbol)</text></g><!--class ExchangeRateService--><g id="elem_ExchangeRateService"><rect codeLine="56" fill="#F1F1F1" height="188.875" id="ExchangeRateService" rx="2.5" ry="2.5" style="stroke:#181818;stroke-width:0.5;" width="695" x="698.5" y="449"/><ellipse cx="972.25" cy="465" fill="#ADD1B2" rx="11" ry="11" style="stroke:#181818;stroke-width:1.0;"/><path d="M975.0156,460.875 Q975.1719,460.6563 975.3594,460.5469 Q975.5469,460.4375 975.7656,460.4375 Q976.1406,460.4375 976.375,460.7031 Q976.6094,460.9531 976.6094,461.5625 L976.6094,463.0156 Q976.6094,463.625 976.375,463.8906 Q976.1406,464.1563 975.7656,464.1563 Q975.4219,464.1563 975.2188,463.9531 Q975.0156,463.7656 974.9063,463.25 Q974.8594,462.8906 974.6719,462.7031 Q974.3438,462.3281 973.7344,462.1094 Q973.125,461.8906 972.5,461.8906 Q971.7344,461.8906 971.0938,462.2188 Q970.4688,462.5469 969.9688,463.2969 Q969.4844,464.0469 969.4844,465.0781 L969.4844,466.1719 Q969.4844,467.4063 970.375,468.2344 Q971.2656,469.0469 972.8594,469.0469 Q973.7969,469.0469 974.4531,468.7969 Q974.8438,468.6406 975.2656,468.2031 Q975.5313,467.9375 975.6719,467.8594 Q975.8281,467.7813 976.0313,467.7813 Q976.3594,467.7813 976.6094,468.0469 Q976.875,468.2969 976.875,468.6406 Q976.875,468.9844 976.5313,469.3906 Q976.0313,469.9688 975.2344,470.2969 Q974.1563,470.75 972.8594,470.75 Q971.3438,470.75 970.1406,470.125 Q969.1563,469.625 968.4688,468.5625 Q967.7813,467.4844 967.7813,466.2031 L967.7813,465.0469 Q967.7813,463.7188 968.3906,462.5781 Q969.0156,461.4219 970.1094,460.8125 Q971.2031,460.1875 972.4375,460.1875 Q973.1719,460.1875 973.8125,460.3594 Q974.4688,460.5156 975.0156,460.875 Z " fill="#000000"/><text fill="#000000" font-family="sans-serif" font-size="14" lengthAdjust="spacing" textLength="139" x="992.75" y="470.7285">ExchangeRateService</text><line style="stroke:#181818;stroke-width:0.5;" x1="699.5" x2="1392.5" y1="481" y2="481"/><text fill="#000000" font-family="sans-serif" font-size="14" lengthAdjust="spacing" textLength="339" x="704.5" y="499.5332">-IExchangeRateRepository _exchangeRateRepository</text><line style="stroke:#181818;stroke-width:0.5;" x1="699.5" x2="1392.5" y1="506.6094" y2="506.6094"/><text fill="#000000" font-family="sans-serif" font-size="14" lengthAdjust="spacing" textLength="483" x="704.5" y="525.1426">+ExchangeRateService(IExchangeRateRepository exchangeRateRepository)</text><text fill="#000000" font-family="sans-serif" font-size="14" lengthAdjust="spacing" textLength="279" x="704.5" y="542.752">+Task&lt;ExchangeRate&gt; GetByIdAsync(int id)</text><text fill="#000000" font-family="sans-serif" font-size="14" lengthAdjust="spacing" textLength="332" x="704.5" y="560.3613">+Task&lt;IEnumerable&lt;ExchangeRate&gt;&gt; GetAllAsync()</text><text fill="#000000" font-family="sans-serif" font-size="14" lengthAdjust="spacing" textLength="246" x="704.5" y="577.9707">+Task AddAsync(ExchangeRate entity)</text><text fill="#000000" font-family="sans-serif" font-size="14" lengthAdjust="spacing" textLength="266" x="704.5" y="595.5801">+Task UpdateAsync(ExchangeRate entity)</text><text fill="#000000" font-family="sans-serif" font-size="14" lengthAdjust="spacing" textLength="262" x="704.5" y="613.1895">+Task DeleteAsync(ExchangeRate entity)</text><text fill="#000000" font-family="sans-serif" font-size="14" lengthAdjust="spacing" textLength="683" x="704.5" y="630.7988">+Task&lt;ExchangeRate&gt; GetByCurrencyPairAsync(string baseCurrencySymbol, string targetCurrencySymbol)</text></g><!--class TransactionService--><g id="elem_TransactionService"><rect codeLine="67" fill="#F1F1F1" height="188.875" id="TransactionService" rx="2.5" ry="2.5" style="stroke:#181818;stroke-width:0.5;" width="481" x="1688.5" y="449"/><ellipse cx="1863.75" cy="465" fill="#ADD1B2" rx="11" ry="11" style="stroke:#181818;stroke-width:1.0;"/><path d="M1866.5156,460.875 Q1866.6719,460.6563 1866.8594,460.5469 Q1867.0469,460.4375 1867.2656,460.4375 Q1867.6406,460.4375 1867.875,460.7031 Q1868.1094,460.9531 1868.1094,461.5625 L1868.1094,463.0156 Q1868.1094,463.625 1867.875,463.8906 Q1867.6406,464.1563 1867.2656,464.1563 Q1866.9219,464.1563 1866.7188,463.9531 Q1866.5156,463.7656 1866.4063,463.25 Q1866.3594,462.8906 1866.1719,462.7031 Q1865.8438,462.3281 1865.2344,462.1094 Q1864.625,461.8906 1864,461.8906 Q1863.2344,461.8906 1862.5938,462.2188 Q1861.9688,462.5469 1861.4688,463.2969 Q1860.9844,464.0469 1860.9844,465.0781 L1860.9844,466.1719 Q1860.9844,467.4063 1861.875,468.2344 Q1862.7656,469.0469 1864.3594,469.0469 Q1865.2969,469.0469 1865.9531,468.7969 Q1866.3438,468.6406 1866.7656,468.2031 Q1867.0313,467.9375 1867.1719,467.8594 Q1867.3281,467.7813 1867.5313,467.7813 Q1867.8594,467.7813 1868.1094,468.0469 Q1868.375,468.2969 1868.375,468.6406 Q1868.375,468.9844 1868.0313,469.3906 Q1867.5313,469.9688 1866.7344,470.2969 Q1865.6563,470.75 1864.3594,470.75 Q1862.8438,470.75 1861.6406,470.125 Q1860.6563,469.625 1859.9688,468.5625 Q1859.2813,467.4844 1859.2813,466.2031 L1859.2813,465.0469 Q1859.2813,463.7188 1859.8906,462.5781 Q1860.5156,461.4219 1861.6094,460.8125 Q1862.7031,460.1875 1863.9375,460.1875 Q1864.6719,460.1875 1865.3125,460.3594 Q1865.9688,460.5156 1866.5156,460.875 Z " fill="#000000"/><text fill="#000000" font-family="sans-serif" font-size="14" lengthAdjust="spacing" textLength="122" x="1884.25" y="470.7285">TransactionService</text><line style="stroke:#181818;stroke-width:0.5;" x1="1689.5" x2="2168.5" y1="481" y2="481"/><text fill="#000000" font-family="sans-serif" font-size="14" lengthAdjust="spacing" textLength="301" x="1694.5" y="499.5332">-ITransactionRepository _transactionRepository</text><line style="stroke:#181818;stroke-width:0.5;" x1="1689.5" x2="2168.5" y1="506.6094" y2="506.6094"/><text fill="#000000" font-family="sans-serif" font-size="14" lengthAdjust="spacing" textLength="428" x="1694.5" y="525.1426">+TransactionService(ITransactionRepository transactionRepository)</text><text fill="#000000" font-family="sans-serif" font-size="14" lengthAdjust="spacing" textLength="262" x="1694.5" y="542.752">+Task&lt;Transaction&gt; GetByIdAsync(int id)</text><text fill="#000000" font-family="sans-serif" font-size="14" lengthAdjust="spacing" textLength="315" x="1694.5" y="560.3613">+Task&lt;IEnumerable&lt;Transaction&gt;&gt; GetAllAsync()</text><text fill="#000000" font-family="sans-serif" font-size="14" lengthAdjust="spacing" textLength="229" x="1694.5" y="577.9707">+Task AddAsync(Transaction entity)</text><text fill="#000000" font-family="sans-serif" font-size="14" lengthAdjust="spacing" textLength="249" x="1694.5" y="595.5801">+Task UpdateAsync(Transaction entity)</text><text fill="#000000" font-family="sans-serif" font-size="14" lengthAdjust="spacing" textLength="245" x="1694.5" y="613.1895">+Task DeleteAsync(Transaction entity)</text><text fill="#000000" font-family="sans-serif" font-size="14" lengthAdjust="spacing" textLength="469" x="1694.5" y="630.7988">+Task&lt;IEnumerable&lt;Transaction&gt;&gt; GetUserTransactionsAsync(int userId)</text></g><!--class UserAlertService--><g id="elem_UserAlertService"><rect codeLine="78" fill="#F1F1F1" height="188.875" id="UserAlertService" rx="2.5" ry="2.5" style="stroke:#181818;stroke-width:0.5;" width="474" x="2447" y="449"/><ellipse cx="2627.25" cy="465" fill="#ADD1B2" rx="11" ry="11" style="stroke:#181818;stroke-width:1.0;"/><path d="M2630.0156,460.875 Q2630.1719,460.6563 2630.3594,460.5469 Q2630.5469,460.4375 2630.7656,460.4375 Q2631.1406,460.4375 2631.375,460.7031 Q2631.6094,460.9531 2631.6094,461.5625 L2631.6094,463.0156 Q2631.6094,463.625 2631.375,463.8906 Q2631.1406,464.1563 2630.7656,464.1563 Q2630.4219,464.1563 2630.2188,463.9531 Q2630.0156,463.7656 2629.9063,463.25 Q2629.8594,462.8906 2629.6719,462.7031 Q2629.3438,462.3281 2628.7344,462.1094 Q2628.125,461.8906 2627.5,461.8906 Q2626.7344,461.8906 2626.0938,462.2188 Q2625.4688,462.5469 2624.9688,463.2969 Q2624.4844,464.0469 2624.4844,465.0781 L2624.4844,466.1719 Q2624.4844,467.4063 2625.375,468.2344 Q2626.2656,469.0469 2627.8594,469.0469 Q2628.7969,469.0469 2629.4531,468.7969 Q2629.8438,468.6406 2630.2656,468.2031 Q2630.5313,467.9375 2630.6719,467.8594 Q2630.8281,467.7813 2631.0313,467.7813 Q2631.3594,467.7813 2631.6094,468.0469 Q2631.875,468.2969 2631.875,468.6406 Q2631.875,468.9844 2631.5313,469.3906 Q2631.0313,469.9688 2630.2344,470.2969 Q2629.1563,470.75 2627.8594,470.75 Q2626.3438,470.75 2625.1406,470.125 Q2624.1563,469.625 2623.4688,468.5625 Q2622.7813,467.4844 2622.7813,466.2031 L2622.7813,465.0469 Q2622.7813,463.7188 2623.3906,462.5781 Q2624.0156,461.4219 2625.1094,460.8125 Q2626.2031,460.1875 2627.4375,460.1875 Q2628.1719,460.1875 2628.8125,460.3594 Q2629.4688,460.5156 2630.0156,460.875 Z " fill="#000000"/><text fill="#000000" font-family="sans-serif" font-size="14" lengthAdjust="spacing" textLength="105" x="2647.75" y="470.7285">UserAlertService</text><line style="stroke:#181818;stroke-width:0.5;" x1="2448" x2="2920" y1="481" y2="481"/><text fill="#000000" font-family="sans-serif" font-size="14" lengthAdjust="spacing" textLength="271" x="2453" y="499.5332">-IUserAlertRepository _userAlertRepository</text><line style="stroke:#181818;stroke-width:0.5;" x1="2448" x2="2920" y1="506.6094" y2="506.6094"/><text fill="#000000" font-family="sans-serif" font-size="14" lengthAdjust="spacing" textLength="381" x="2453" y="525.1426">+UserAlertService(IUserAlertRepository userAlertRepository)</text><text fill="#000000" font-family="sans-serif" font-size="14" lengthAdjust="spacing" textLength="245" x="2453" y="542.752">+Task&lt;UserAlert&gt; GetByIdAsync(int id)</text><text fill="#000000" font-family="sans-serif" font-size="14" lengthAdjust="spacing" textLength="298" x="2453" y="560.3613">+Task&lt;IEnumerable&lt;UserAlert&gt;&gt; GetAllAsync()</text><text fill="#000000" font-family="sans-serif" font-size="14" lengthAdjust="spacing" textLength="212" x="2453" y="577.9707">+Task AddAsync(UserAlert entity)</text><text fill="#000000" font-family="sans-serif" font-size="14" lengthAdjust="spacing" textLength="232" x="2453" y="595.5801">+Task UpdateAsync(UserAlert entity)</text><text fill="#000000" font-family="sans-serif" font-size="14" lengthAdjust="spacing" textLength="228" x="2453" y="613.1895">+Task DeleteAsync(UserAlert entity)</text><text fill="#000000" font-family="sans-serif" font-size="14" lengthAdjust="spacing" textLength="462" x="2453" y="630.7988">+Task&lt;IEnumerable&lt;UserAlert&gt;&gt; GetUserAlertsByUserIdAsync(int userId)</text></g><!--class UserService--><g id="elem_UserService"><rect codeLine="89" fill="#F1F1F1" height="188.875" id="UserService" rx="2.5" ry="2.5" style="stroke:#181818;stroke-width:0.5;" width="353" x="3181.5" y="449"/><ellipse cx="3315.75" cy="465" fill="#ADD1B2" rx="11" ry="11" style="stroke:#181818;stroke-width:1.0;"/><path d="M3318.5156,460.875 Q3318.6719,460.6563 3318.8594,460.5469 Q3319.0469,460.4375 3319.2656,460.4375 Q3319.6406,460.4375 3319.875,460.7031 Q3320.1094,460.9531 3320.1094,461.5625 L3320.1094,463.0156 Q3320.1094,463.625 3319.875,463.8906 Q3319.6406,464.1563 3319.2656,464.1563 Q3318.9219,464.1563 3318.7188,463.9531 Q3318.5156,463.7656 3318.4063,463.25 Q3318.3594,462.8906 3318.1719,462.7031 Q3317.8438,462.3281 3317.2344,462.1094 Q3316.625,461.8906 3316,461.8906 Q3315.2344,461.8906 3314.5938,462.2188 Q3313.9688,462.5469 3313.4688,463.2969 Q3312.9844,464.0469 3312.9844,465.0781 L3312.9844,466.1719 Q3312.9844,467.4063 3313.875,468.2344 Q3314.7656,469.0469 3316.3594,469.0469 Q3317.2969,469.0469 3317.9531,468.7969 Q3318.3438,468.6406 3318.7656,468.2031 Q3319.0313,467.9375 3319.1719,467.8594 Q3319.3281,467.7813 3319.5313,467.7813 Q3319.8594,467.7813 3320.1094,468.0469 Q3320.375,468.2969 3320.375,468.6406 Q3320.375,468.9844 3320.0313,469.3906 Q3319.5313,469.9688 3318.7344,470.2969 Q3317.6563,470.75 3316.3594,470.75 Q3314.8438,470.75 3313.6406,470.125 Q3312.6563,469.625 3311.9688,468.5625 Q3311.2813,467.4844 3311.2813,466.2031 L3311.2813,465.0469 Q3311.2813,463.7188 3311.8906,462.5781 Q3312.5156,461.4219 3313.6094,460.8125 Q3314.7031,460.1875 3315.9375,460.1875 Q3316.6719,460.1875 3317.3125,460.3594 Q3317.9688,460.5156 3318.5156,460.875 Z " fill="#000000"/><text fill="#000000" font-family="sans-serif" font-size="14" lengthAdjust="spacing" textLength="76" x="3336.25" y="470.7285">UserService</text><line style="stroke:#181818;stroke-width:0.5;" x1="3182.5" x2="3533.5" y1="481" y2="481"/><text fill="#000000" font-family="sans-serif" font-size="14" lengthAdjust="spacing" textLength="213" x="3187.5" y="499.5332">-IUserRepository _userRepository</text><line style="stroke:#181818;stroke-width:0.5;" x1="3182.5" x2="3533.5" y1="506.6094" y2="506.6094"/><text fill="#000000" font-family="sans-serif" font-size="14" lengthAdjust="spacing" textLength="294" x="3187.5" y="525.1426">+UserService(IUserRepository userRepository)</text><text fill="#000000" font-family="sans-serif" font-size="14" lengthAdjust="spacing" textLength="216" x="3187.5" y="542.752">+Task&lt;User&gt; GetByIdAsync(int id)</text><text fill="#000000" font-family="sans-serif" font-size="14" lengthAdjust="spacing" textLength="269" x="3187.5" y="560.3613">+Task&lt;IEnumerable&lt;User&gt;&gt; GetAllAsync()</text><text fill="#000000" font-family="sans-serif" font-size="14" lengthAdjust="spacing" textLength="183" x="3187.5" y="577.9707">+Task AddAsync(User entity)</text><text fill="#000000" font-family="sans-serif" font-size="14" lengthAdjust="spacing" textLength="203" x="3187.5" y="595.5801">+Task UpdateAsync(User entity)</text><text fill="#000000" font-family="sans-serif" font-size="14" lengthAdjust="spacing" textLength="199" x="3187.5" y="613.1895">+Task DeleteAsync(User entity)</text><text fill="#000000" font-family="sans-serif" font-size="14" lengthAdjust="spacing" textLength="341" x="3187.5" y="630.7988">+Task&lt;User&gt; GetByUsernameAsync(string username)</text></g><!--class WalletService--><g id="elem_WalletService"><rect codeLine="100" fill="#F1F1F1" height="188.875" id="WalletService" rx="2.5" ry="2.5" style="stroke:#181818;stroke-width:0.5;" width="409" x="3766.5" y="449"/><ellipse cx="3923.75" cy="465" fill="#ADD1B2" rx="11" ry="11" style="stroke:#181818;stroke-width:1.0;"/><path d="M3926.5156,460.875 Q3926.6719,460.6563 3926.8594,460.5469 Q3927.0469,460.4375 3927.2656,460.4375 Q3927.6406,460.4375 3927.875,460.7031 Q3928.1094,460.9531 3928.1094,461.5625 L3928.1094,463.0156 Q3928.1094,463.625 3927.875,463.8906 Q3927.6406,464.1563 3927.2656,464.1563 Q3926.9219,464.1563 3926.7188,463.9531 Q3926.5156,463.7656 3926.4063,463.25 Q3926.3594,462.8906 3926.1719,462.7031 Q3925.8438,462.3281 3925.2344,462.1094 Q3924.625,461.8906 3924,461.8906 Q3923.2344,461.8906 3922.5938,462.2188 Q3921.9688,462.5469 3921.4688,463.2969 Q3920.9844,464.0469 3920.9844,465.0781 L3920.9844,466.1719 Q3920.9844,467.4063 3921.875,468.2344 Q3922.7656,469.0469 3924.3594,469.0469 Q3925.2969,469.0469 3925.9531,468.7969 Q3926.3438,468.6406 3926.7656,468.2031 Q3927.0313,467.9375 3927.1719,467.8594 Q3927.3281,467.7813 3927.5313,467.7813 Q3927.8594,467.7813 3928.1094,468.0469 Q3928.375,468.2969 3928.375,468.6406 Q3928.375,468.9844 3928.0313,469.3906 Q3927.5313,469.9688 3926.7344,470.2969 Q3925.6563,470.75 3924.3594,470.75 Q3922.8438,470.75 3921.6406,470.125 Q3920.6563,469.625 3919.9688,468.5625 Q3919.2813,467.4844 3919.2813,466.2031 L3919.2813,465.0469 Q3919.2813,463.7188 3919.8906,462.5781 Q3920.5156,461.4219 3921.6094,460.8125 Q3922.7031,460.1875 3923.9375,460.1875 Q3924.6719,460.1875 3925.3125,460.3594 Q3925.9688,460.5156 3926.5156,460.875 Z " fill="#000000"/><text fill="#000000" font-family="sans-serif" font-size="14" lengthAdjust="spacing" textLength="86" x="3944.25" y="470.7285">WalletService</text><line style="stroke:#181818;stroke-width:0.5;" x1="3767.5" x2="4174.5" y1="481" y2="481"/><text fill="#000000" font-family="sans-serif" font-size="14" lengthAdjust="spacing" textLength="230" x="3772.5" y="499.5332">-IWalletRepository _walletRepository</text><line style="stroke:#181818;stroke-width:0.5;" x1="3767.5" x2="4174.5" y1="506.6094" y2="506.6094"/><text fill="#000000" font-family="sans-serif" font-size="14" lengthAdjust="spacing" textLength="321" x="3772.5" y="525.1426">+WalletService(IWalletRepository walletRepository)</text><text fill="#000000" font-family="sans-serif" font-size="14" lengthAdjust="spacing" textLength="226" x="3772.5" y="542.752">+Task&lt;Wallet&gt; GetByIdAsync(int id)</text><text fill="#000000" font-family="sans-serif" font-size="14" lengthAdjust="spacing" textLength="279" x="3772.5" y="560.3613">+Task&lt;IEnumerable&lt;Wallet&gt;&gt; GetAllAsync()</text><text fill="#000000" font-family="sans-serif" font-size="14" lengthAdjust="spacing" textLength="193" x="3772.5" y="577.9707">+Task AddAsync(Wallet entity)</text><text fill="#000000" font-family="sans-serif" font-size="14" lengthAdjust="spacing" textLength="213" x="3772.5" y="595.5801">+Task UpdateAsync(Wallet entity)</text><text fill="#000000" font-family="sans-serif" font-size="14" lengthAdjust="spacing" textLength="209" x="3772.5" y="613.1895">+Task DeleteAsync(Wallet entity)</text><text fill="#000000" font-family="sans-serif" font-size="14" lengthAdjust="spacing" textLength="397" x="3772.5" y="630.7988">+Task&lt;IEnumerable&lt;Wallet&gt;&gt; GetUserWalletsAsync(int userId)</text></g><!--class ICurrencyRepository--><g id="elem_ICurrencyRepository"><rect fill="#F1F1F1" height="48" id="ICurrencyRepository" rx="2.5" ry="2.5" style="stroke:#181818;stroke-width:0.5;" width="161" x="502.5" y="519.5"/><ellipse cx="517.5" cy="535.5" fill="#ADD1B2" rx="11" ry="11" style="stroke:#181818;stroke-width:1.0;"/><path d="M520.2656,531.375 Q520.4219,531.1563 520.6094,531.0469 Q520.7969,530.9375 521.0156,530.9375 Q521.3906,530.9375 521.625,531.2031 Q521.8594,531.4531 521.8594,532.0625 L521.8594,533.5156 Q521.8594,534.125 521.625,534.3906 Q521.3906,534.6563 521.0156,534.6563 Q520.6719,534.6563 520.4688,534.4531 Q520.2656,534.2656 520.1563,533.75 Q520.1094,533.3906 519.9219,533.2031 Q519.5938,532.8281 518.9844,532.6094 Q518.375,532.3906 517.75,532.3906 Q516.9844,532.3906 516.3438,532.7188 Q515.7188,533.0469 515.2188,533.7969 Q514.7344,534.5469 514.7344,535.5781 L514.7344,536.6719 Q514.7344,537.9063 515.625,538.7344 Q516.5156,539.5469 518.1094,539.5469 Q519.0469,539.5469 519.7031,539.2969 Q520.0938,539.1406 520.5156,538.7031 Q520.7813,538.4375 520.9219,538.3594 Q521.0781,538.2813 521.2813,538.2813 Q521.6094,538.2813 521.8594,538.5469 Q522.125,538.7969 522.125,539.1406 Q522.125,539.4844 521.7813,539.8906 Q521.2813,540.4688 520.4844,540.7969 Q519.4063,541.25 518.1094,541.25 Q516.5938,541.25 515.3906,540.625 Q514.4063,540.125 513.7188,539.0625 Q513.0313,537.9844 513.0313,536.7031 L513.0313,535.5469 Q513.0313,534.2188 513.6406,533.0781 Q514.2656,531.9219 515.3594,531.3125 Q516.4531,530.6875 517.6875,530.6875 Q518.4219,530.6875 519.0625,530.8594 Q519.7188,531.0156 520.2656,531.375 Z " fill="#000000"/><text fill="#000000" font-family="sans-serif" font-size="14" lengthAdjust="spacing" textLength="129" x="531.5" y="541.2285">ICurrencyRepository</text><line style="stroke:#181818;stroke-width:0.5;" x1="503.5" x2="662.5" y1="551.5" y2="551.5"/><line style="stroke:#181818;stroke-width:0.5;" x1="503.5" x2="662.5" y1="559.5" y2="559.5"/></g><!--class IExchangeRateRepository--><g id="elem_IExchangeRateRepository"><rect fill="#F1F1F1" height="48" id="IExchangeRateRepository" rx="2.5" ry="2.5" style="stroke:#181818;stroke-width:0.5;" width="195" x="1458.5" y="519.5"/><ellipse cx="1473.5" cy="535.5" fill="#ADD1B2" rx="11" ry="11" style="stroke:#181818;stroke-width:1.0;"/><path d="M1476.2656,531.375 Q1476.4219,531.1563 1476.6094,531.0469 Q1476.7969,530.9375 1477.0156,530.9375 Q1477.3906,530.9375 1477.625,531.2031 Q1477.8594,531.4531 1477.8594,532.0625 L1477.8594,533.5156 Q1477.8594,534.125 1477.625,534.3906 Q1477.3906,534.6563 1477.0156,534.6563 Q1476.6719,534.6563 1476.4688,534.4531 Q1476.2656,534.2656 1476.1563,533.75 Q1476.1094,533.3906 1475.9219,533.2031 Q1475.5938,532.8281 1474.9844,532.6094 Q1474.375,532.3906 1473.75,532.3906 Q1472.9844,532.3906 1472.3438,532.7188 Q1471.7188,533.0469 1471.2188,533.7969 Q1470.7344,534.5469 1470.7344,535.5781 L1470.7344,536.6719 Q1470.7344,537.9063 1471.625,538.7344 Q1472.5156,539.5469 1474.1094,539.5469 Q1475.0469,539.5469 1475.7031,539.2969 Q1476.0938,539.1406 1476.5156,538.7031 Q1476.7813,538.4375 1476.9219,538.3594 Q1477.0781,538.2813 1477.2813,538.2813 Q1477.6094,538.2813 1477.8594,538.5469 Q1478.125,538.7969 1478.125,539.1406 Q1478.125,539.4844 1477.7813,539.8906 Q1477.2813,540.4688 1476.4844,540.7969 Q1475.4063,541.25 1474.1094,541.25 Q1472.5938,541.25 1471.3906,540.625 Q1470.4063,540.125 1469.7188,539.0625 Q1469.0313,537.9844 1469.0313,536.7031 L1469.0313,535.5469 Q1469.0313,534.2188 1469.6406,533.0781 Q1470.2656,531.9219 1471.3594,531.3125 Q1472.4531,530.6875 1473.6875,530.6875 Q1474.4219,530.6875 1475.0625,530.8594 Q1475.7188,531.0156 1476.2656,531.375 Z " fill="#000000"/><text fill="#000000" font-family="sans-serif" font-size="14" lengthAdjust="spacing" textLength="163" x="1487.5" y="541.2285">IExchangeRateRepository</text><line style="stroke:#181818;stroke-width:0.5;" x1="1459.5" x2="1652.5" y1="551.5" y2="551.5"/><line style="stroke:#181818;stroke-width:0.5;" x1="1459.5" x2="1652.5" y1="559.5" y2="559.5"/></g><!--class ITransactionRepository--><g id="elem_ITransactionRepository"><rect fill="#F1F1F1" height="48" id="ITransactionRepository" rx="2.5" ry="2.5" style="stroke:#181818;stroke-width:0.5;" width="178" x="2234" y="519.5"/><ellipse cx="2249" cy="535.5" fill="#ADD1B2" rx="11" ry="11" style="stroke:#181818;stroke-width:1.0;"/><path d="M2251.7656,531.375 Q2251.9219,531.1563 2252.1094,531.0469 Q2252.2969,530.9375 2252.5156,530.9375 Q2252.8906,530.9375 2253.125,531.2031 Q2253.3594,531.4531 2253.3594,532.0625 L2253.3594,533.5156 Q2253.3594,534.125 2253.125,534.3906 Q2252.8906,534.6563 2252.5156,534.6563 Q2252.1719,534.6563 2251.9688,534.4531 Q2251.7656,534.2656 2251.6563,533.75 Q2251.6094,533.3906 2251.4219,533.2031 Q2251.0938,532.8281 2250.4844,532.6094 Q2249.875,532.3906 2249.25,532.3906 Q2248.4844,532.3906 2247.8438,532.7188 Q2247.2188,533.0469 2246.7188,533.7969 Q2246.2344,534.5469 2246.2344,535.5781 L2246.2344,536.6719 Q2246.2344,537.9063 2247.125,538.7344 Q2248.0156,539.5469 2249.6094,539.5469 Q2250.5469,539.5469 2251.2031,539.2969 Q2251.5938,539.1406 2252.0156,538.7031 Q2252.2813,538.4375 2252.4219,538.3594 Q2252.5781,538.2813 2252.7813,538.2813 Q2253.1094,538.2813 2253.3594,538.5469 Q2253.625,538.7969 2253.625,539.1406 Q2253.625,539.4844 2253.2813,539.8906 Q2252.7813,540.4688 2251.9844,540.7969 Q2250.9063,541.25 2249.6094,541.25 Q2248.0938,541.25 2246.8906,540.625 Q2245.9063,540.125 2245.2188,539.0625 Q2244.5313,537.9844 2244.5313,536.7031 L2244.5313,535.5469 Q2244.5313,534.2188 2245.1406,533.0781 Q2245.7656,531.9219 2246.8594,531.3125 Q2247.9531,530.6875 2249.1875,530.6875 Q2249.9219,530.6875 2250.5625,530.8594 Q2251.2188,531.0156 2251.7656,531.375 Z " fill="#000000"/><text fill="#000000" font-family="sans-serif" font-size="14" lengthAdjust="spacing" textLength="146" x="2263" y="541.2285">ITransactionRepository</text><line style="stroke:#181818;stroke-width:0.5;" x1="2235" x2="2411" y1="551.5" y2="551.5"/><line style="stroke:#181818;stroke-width:0.5;" x1="2235" x2="2411" y1="559.5" y2="559.5"/></g><!--class IUserAlertRepository--><g id="elem_IUserAlertRepository"><rect fill="#F1F1F1" height="48" id="IUserAlertRepository" rx="2.5" ry="2.5" style="stroke:#181818;stroke-width:0.5;" width="161" x="2985.5" y="519.5"/><ellipse cx="3000.5" cy="535.5" fill="#ADD1B2" rx="11" ry="11" style="stroke:#181818;stroke-width:1.0;"/><path d="M3003.2656,531.375 Q3003.4219,531.1563 3003.6094,531.0469 Q3003.7969,530.9375 3004.0156,530.9375 Q3004.3906,530.9375 3004.625,531.2031 Q3004.8594,531.4531 3004.8594,532.0625 L3004.8594,533.5156 Q3004.8594,534.125 3004.625,534.3906 Q3004.3906,534.6563 3004.0156,534.6563 Q3003.6719,534.6563 3003.4688,534.4531 Q3003.2656,534.2656 3003.1563,533.75 Q3003.1094,533.3906 3002.9219,533.2031 Q3002.5938,532.8281 3001.9844,532.6094 Q3001.375,532.3906 3000.75,532.3906 Q2999.9844,532.3906 2999.3438,532.7188 Q2998.7188,533.0469 2998.2188,533.7969 Q2997.7344,534.5469 2997.7344,535.5781 L2997.7344,536.6719 Q2997.7344,537.9063 2998.625,538.7344 Q2999.5156,539.5469 3001.1094,539.5469 Q3002.0469,539.5469 3002.7031,539.2969 Q3003.0938,539.1406 3003.5156,538.7031 Q3003.7813,538.4375 3003.9219,538.3594 Q3004.0781,538.2813 3004.2813,538.2813 Q3004.6094,538.2813 3004.8594,538.5469 Q3005.125,538.7969 3005.125,539.1406 Q3005.125,539.4844 3004.7813,539.8906 Q3004.2813,540.4688 3003.4844,540.7969 Q3002.4063,541.25 3001.1094,541.25 Q2999.5938,541.25 2998.3906,540.625 Q2997.4063,540.125 2996.7188,539.0625 Q2996.0313,537.9844 2996.0313,536.7031 L2996.0313,535.5469 Q2996.0313,534.2188 2996.6406,533.0781 Q2997.2656,531.9219 2998.3594,531.3125 Q2999.4531,530.6875 3000.6875,530.6875 Q3001.4219,530.6875 3002.0625,530.8594 Q3002.7188,531.0156 3003.2656,531.375 Z " fill="#000000"/><text fill="#000000" font-family="sans-serif" font-size="14" lengthAdjust="spacing" textLength="129" x="3014.5" y="541.2285">IUserAlertRepository</text><line style="stroke:#181818;stroke-width:0.5;" x1="2986.5" x2="3145.5" y1="551.5" y2="551.5"/><line style="stroke:#181818;stroke-width:0.5;" x1="2986.5" x2="3145.5" y1="559.5" y2="559.5"/></g><!--class IUserRepository--><g id="elem_IUserRepository"><rect fill="#F1F1F1" height="48" id="IUserRepository" rx="2.5" ry="2.5" style="stroke:#181818;stroke-width:0.5;" width="132" x="3599" y="519.5"/><ellipse cx="3614" cy="535.5" fill="#ADD1B2" rx="11" ry="11" style="stroke:#181818;stroke-width:1.0;"/><path d="M3616.7656,531.375 Q3616.9219,531.1563 3617.1094,531.0469 Q3617.2969,530.9375 3617.5156,530.9375 Q3617.8906,530.9375 3618.125,531.2031 Q3618.3594,531.4531 3618.3594,532.0625 L3618.3594,533.5156 Q3618.3594,534.125 3618.125,534.3906 Q3617.8906,534.6563 3617.5156,534.6563 Q3617.1719,534.6563 3616.9688,534.4531 Q3616.7656,534.2656 3616.6563,533.75 Q3616.6094,533.3906 3616.4219,533.2031 Q3616.0938,532.8281 3615.4844,532.6094 Q3614.875,532.3906 3614.25,532.3906 Q3613.4844,532.3906 3612.8438,532.7188 Q3612.2188,533.0469 3611.7188,533.7969 Q3611.2344,534.5469 3611.2344,535.5781 L3611.2344,536.6719 Q3611.2344,537.9063 3612.125,538.7344 Q3613.0156,539.5469 3614.6094,539.5469 Q3615.5469,539.5469 3616.2031,539.2969 Q3616.5938,539.1406 3617.0156,538.7031 Q3617.2813,538.4375 3617.4219,538.3594 Q3617.5781,538.2813 3617.7813,538.2813 Q3618.1094,538.2813 3618.3594,538.5469 Q3618.625,538.7969 3618.625,539.1406 Q3618.625,539.4844 3618.2813,539.8906 Q3617.7813,540.4688 3616.9844,540.7969 Q3615.9063,541.25 3614.6094,541.25 Q3613.0938,541.25 3611.8906,540.625 Q3610.9063,540.125 3610.2188,539.0625 Q3609.5313,537.9844 3609.5313,536.7031 L3609.5313,535.5469 Q3609.5313,534.2188 3610.1406,533.0781 Q3610.7656,531.9219 3611.8594,531.3125 Q3612.9531,530.6875 3614.1875,530.6875 Q3614.9219,530.6875 3615.5625,530.8594 Q3616.2188,531.0156 3616.7656,531.375 Z " fill="#000000"/><text fill="#000000" font-family="sans-serif" font-size="14" lengthAdjust="spacing" textLength="100" x="3628" y="541.2285">IUserRepository</text><line style="stroke:#181818;stroke-width:0.5;" x1="3600" x2="3730" y1="551.5" y2="551.5"/><line style="stroke:#181818;stroke-width:0.5;" x1="3600" x2="3730" y1="559.5" y2="559.5"/></g><!--class IWalletRepository--><g id="elem_IWalletRepository"><rect fill="#F1F1F1" height="48" id="IWalletRepository" rx="2.5" ry="2.5" style="stroke:#181818;stroke-width:0.5;" width="142" x="4240" y="519.5"/><ellipse cx="4255" cy="535.5" fill="#ADD1B2" rx="11" ry="11" style="stroke:#181818;stroke-width:1.0;"/><path d="M4257.7656,531.375 Q4257.9219,531.1563 4258.1094,531.0469 Q4258.2969,530.9375 4258.5156,530.9375 Q4258.8906,530.9375 4259.125,531.2031 Q4259.3594,531.4531 4259.3594,532.0625 L4259.3594,533.5156 Q4259.3594,534.125 4259.125,534.3906 Q4258.8906,534.6563 4258.5156,534.6563 Q4258.1719,534.6563 4257.9688,534.4531 Q4257.7656,534.2656 4257.6563,533.75 Q4257.6094,533.3906 4257.4219,533.2031 Q4257.0938,532.8281 4256.4844,532.6094 Q4255.875,532.3906 4255.25,532.3906 Q4254.4844,532.3906 4253.8438,532.7188 Q4253.2188,533.0469 4252.7188,533.7969 Q4252.2344,534.5469 4252.2344,535.5781 L4252.2344,536.6719 Q4252.2344,537.9063 4253.125,538.7344 Q4254.0156,539.5469 4255.6094,539.5469 Q4256.5469,539.5469 4257.2031,539.2969 Q4257.5938,539.1406 4258.0156,538.7031 Q4258.2813,538.4375 4258.4219,538.3594 Q4258.5781,538.2813 4258.7813,538.2813 Q4259.1094,538.2813 4259.3594,538.5469 Q4259.625,538.7969 4259.625,539.1406 Q4259.625,539.4844 4259.2813,539.8906 Q4258.7813,540.4688 4257.9844,540.7969 Q4256.9063,541.25 4255.6094,541.25 Q4254.0938,541.25 4252.8906,540.625 Q4251.9063,540.125 4251.2188,539.0625 Q4250.5313,537.9844 4250.5313,536.7031 L4250.5313,535.5469 Q4250.5313,534.2188 4251.1406,533.0781 Q4251.7656,531.9219 4252.8594,531.3125 Q4253.9531,530.6875 4255.1875,530.6875 Q4255.9219,530.6875 4256.5625,530.8594 Q4257.2188,531.0156 4257.7656,531.375 Z " fill="#000000"/><text fill="#000000" font-family="sans-serif" font-size="14" lengthAdjust="spacing" textLength="110" x="4269" y="541.2285">IWalletRepository</text><line style="stroke:#181818;stroke-width:0.5;" x1="4241" x2="4381" y1="551.5" y2="551.5"/><line style="stroke:#181818;stroke-width:0.5;" x1="4241" x2="4381" y1="559.5" y2="559.5"/></g><!--class Currency--><g id="elem_Currency"><rect codeLine="127" fill="#F1F1F1" height="48" id="Currency" rx="2.5" ry="2.5" style="stroke:#181818;stroke-width:0.5;" width="90" x="1941" y="791"/><ellipse cx="1956" cy="807" fill="#ADD1B2" rx="11" ry="11" style="stroke:#181818;stroke-width:1.0;"/><path d="M1958.7656,802.875 Q1958.9219,802.6563 1959.1094,802.5469 Q1959.2969,802.4375 1959.5156,802.4375 Q1959.8906,802.4375 1960.125,802.7031 Q1960.3594,802.9531 1960.3594,803.5625 L1960.3594,805.0156 Q1960.3594,805.625 1960.125,805.8906 Q1959.8906,806.1563 1959.5156,806.1563 Q1959.1719,806.1563 1958.9688,805.9531 Q1958.7656,805.7656 1958.6563,805.25 Q1958.6094,804.8906 1958.4219,804.7031 Q1958.0938,804.3281 1957.4844,804.1094 Q1956.875,803.8906 1956.25,803.8906 Q1955.4844,803.8906 1954.8438,804.2188 Q1954.2188,804.5469 1953.7188,805.2969 Q1953.2344,806.0469 1953.2344,807.0781 L1953.2344,808.1719 Q1953.2344,809.4063 1954.125,810.2344 Q1955.0156,811.0469 1956.6094,811.0469 Q1957.5469,811.0469 1958.2031,810.7969 Q1958.5938,810.6406 1959.0156,810.2031 Q1959.2813,809.9375 1959.4219,809.8594 Q1959.5781,809.7813 1959.7813,809.7813 Q1960.1094,809.7813 1960.3594,810.0469 Q1960.625,810.2969 1960.625,810.6406 Q1960.625,810.9844 1960.2813,811.3906 Q1959.7813,811.9688 1958.9844,812.2969 Q1957.9063,812.75 1956.6094,812.75 Q1955.0938,812.75 1953.8906,812.125 Q1952.9063,811.625 1952.2188,810.5625 Q1951.5313,809.4844 1951.5313,808.2031 L1951.5313,807.0469 Q1951.5313,805.7188 1952.1406,804.5781 Q1952.7656,803.4219 1953.8594,802.8125 Q1954.9531,802.1875 1956.1875,802.1875 Q1956.9219,802.1875 1957.5625,802.3594 Q1958.2188,802.5156 1958.7656,802.875 Z " fill="#000000"/><text fill="#000000" font-family="sans-serif" font-size="14" lengthAdjust="spacing" textLength="58" x="1970" y="812.7285">Currency</text><line style="stroke:#181818;stroke-width:0.5;" x1="1942" x2="2030" y1="823" y2="823"/><line style="stroke:#181818;stroke-width:0.5;" x1="1942" x2="2030" y1="831" y2="831"/></g><!--class ExchangeRate--><g id="elem_ExchangeRate"><rect codeLine="128" fill="#F1F1F1" height="48" id="ExchangeRate" rx="2.5" ry="2.5" style="stroke:#181818;stroke-width:0.5;" width="124" x="2066" y="791"/><ellipse cx="2081" cy="807" fill="#ADD1B2" rx="11" ry="11" style="stroke:#181818;stroke-width:1.0;"/><path d="M2083.7656,802.875 Q2083.9219,802.6563 2084.1094,802.5469 Q2084.2969,802.4375 2084.5156,802.4375 Q2084.8906,802.4375 2085.125,802.7031 Q2085.3594,802.9531 2085.3594,803.5625 L2085.3594,805.0156 Q2085.3594,805.625 2085.125,805.8906 Q2084.8906,806.1563 2084.5156,806.1563 Q2084.1719,806.1563 2083.9688,805.9531 Q2083.7656,805.7656 2083.6563,805.25 Q2083.6094,804.8906 2083.4219,804.7031 Q2083.0938,804.3281 2082.4844,804.1094 Q2081.875,803.8906 2081.25,803.8906 Q2080.4844,803.8906 2079.8438,804.2188 Q2079.2188,804.5469 2078.7188,805.2969 Q2078.2344,806.0469 2078.2344,807.0781 L2078.2344,808.1719 Q2078.2344,809.4063 2079.125,810.2344 Q2080.0156,811.0469 2081.6094,811.0469 Q2082.5469,811.0469 2083.2031,810.7969 Q2083.5938,810.6406 2084.0156,810.2031 Q2084.2813,809.9375 2084.4219,809.8594 Q2084.5781,809.7813 2084.7813,809.7813 Q2085.1094,809.7813 2085.3594,810.0469 Q2085.625,810.2969 2085.625,810.6406 Q2085.625,810.9844 2085.2813,811.3906 Q2084.7813,811.9688 2083.9844,812.2969 Q2082.9063,812.75 2081.6094,812.75 Q2080.0938,812.75 2078.8906,812.125 Q2077.9063,811.625 2077.2188,810.5625 Q2076.5313,809.4844 2076.5313,808.2031 L2076.5313,807.0469 Q2076.5313,805.7188 2077.1406,804.5781 Q2077.7656,803.4219 2078.8594,802.8125 Q2079.9531,802.1875 2081.1875,802.1875 Q2081.9219,802.1875 2082.5625,802.3594 Q2083.2188,802.5156 2083.7656,802.875 Z " fill="#000000"/><text fill="#000000" font-family="sans-serif" font-size="14" lengthAdjust="spacing" textLength="92" x="2095" y="812.7285">ExchangeRate</text><line style="stroke:#181818;stroke-width:0.5;" x1="2067" x2="2189" y1="823" y2="823"/><line style="stroke:#181818;stroke-width:0.5;" x1="2067" x2="2189" y1="831" y2="831"/></g><!--class Transaction--><g id="elem_Transaction"><rect codeLine="129" fill="#F1F1F1" height="48" id="Transaction" rx="2.5" ry="2.5" style="stroke:#181818;stroke-width:0.5;" width="107" x="2225.5" y="791"/><ellipse cx="2240.5" cy="807" fill="#ADD1B2" rx="11" ry="11" style="stroke:#181818;stroke-width:1.0;"/><path d="M2243.2656,802.875 Q2243.4219,802.6563 2243.6094,802.5469 Q2243.7969,802.4375 2244.0156,802.4375 Q2244.3906,802.4375 2244.625,802.7031 Q2244.8594,802.9531 2244.8594,803.5625 L2244.8594,805.0156 Q2244.8594,805.625 2244.625,805.8906 Q2244.3906,806.1563 2244.0156,806.1563 Q2243.6719,806.1563 2243.4688,805.9531 Q2243.2656,805.7656 2243.1563,805.25 Q2243.1094,804.8906 2242.9219,804.7031 Q2242.5938,804.3281 2241.9844,804.1094 Q2241.375,803.8906 2240.75,803.8906 Q2239.9844,803.8906 2239.3438,804.2188 Q2238.7188,804.5469 2238.2188,805.2969 Q2237.7344,806.0469 2237.7344,807.0781 L2237.7344,808.1719 Q2237.7344,809.4063 2238.625,810.2344 Q2239.5156,811.0469 2241.1094,811.0469 Q2242.0469,811.0469 2242.7031,810.7969 Q2243.0938,810.6406 2243.5156,810.2031 Q2243.7813,809.9375 2243.9219,809.8594 Q2244.0781,809.7813 2244.2813,809.7813 Q2244.6094,809.7813 2244.8594,810.0469 Q2245.125,810.2969 2245.125,810.6406 Q2245.125,810.9844 2244.7813,811.3906 Q2244.2813,811.9688 2243.4844,812.2969 Q2242.4063,812.75 2241.1094,812.75 Q2239.5938,812.75 2238.3906,812.125 Q2237.4063,811.625 2236.7188,810.5625 Q2236.0313,809.4844 2236.0313,808.2031 L2236.0313,807.0469 Q2236.0313,805.7188 2236.6406,804.5781 Q2237.2656,803.4219 2238.3594,802.8125 Q2239.4531,802.1875 2240.6875,802.1875 Q2241.4219,802.1875 2242.0625,802.3594 Q2242.7188,802.5156 2243.2656,802.875 Z " fill="#000000"/><text fill="#000000" font-family="sans-serif" font-size="14" lengthAdjust="spacing" textLength="75" x="2254.5" y="812.7285">Transaction</text><line style="stroke:#181818;stroke-width:0.5;" x1="2226.5" x2="2331.5" y1="823" y2="823"/><line style="stroke:#181818;stroke-width:0.5;" x1="2226.5" x2="2331.5" y1="831" y2="831"/></g><!--class UserAlert--><g id="elem_UserAlert"><rect codeLine="130" fill="#F1F1F1" height="48" id="UserAlert" rx="2.5" ry="2.5" style="stroke:#181818;stroke-width:0.5;" width="90" x="2368" y="791"/><ellipse cx="2383" cy="807" fill="#ADD1B2" rx="11" ry="11" style="stroke:#181818;stroke-width:1.0;"/><path d="M2385.7656,802.875 Q2385.9219,802.6563 2386.1094,802.5469 Q2386.2969,802.4375 2386.5156,802.4375 Q2386.8906,802.4375 2387.125,802.7031 Q2387.3594,802.9531 2387.3594,803.5625 L2387.3594,805.0156 Q2387.3594,805.625 2387.125,805.8906 Q2386.8906,806.1563 2386.5156,806.1563 Q2386.1719,806.1563 2385.9688,805.9531 Q2385.7656,805.7656 2385.6563,805.25 Q2385.6094,804.8906 2385.4219,804.7031 Q2385.0938,804.3281 2384.4844,804.1094 Q2383.875,803.8906 2383.25,803.8906 Q2382.4844,803.8906 2381.8438,804.2188 Q2381.2188,804.5469 2380.7188,805.2969 Q2380.2344,806.0469 2380.2344,807.0781 L2380.2344,808.1719 Q2380.2344,809.4063 2381.125,810.2344 Q2382.0156,811.0469 2383.6094,811.0469 Q2384.5469,811.0469 2385.2031,810.7969 Q2385.5938,810.6406 2386.0156,810.2031 Q2386.2813,809.9375 2386.4219,809.8594 Q2386.5781,809.7813 2386.7813,809.7813 Q2387.1094,809.7813 2387.3594,810.0469 Q2387.625,810.2969 2387.625,810.6406 Q2387.625,810.9844 2387.2813,811.3906 Q2386.7813,811.9688 2385.9844,812.2969 Q2384.9063,812.75 2383.6094,812.75 Q2382.0938,812.75 2380.8906,812.125 Q2379.9063,811.625 2379.2188,810.5625 Q2378.5313,809.4844 2378.5313,808.2031 L2378.5313,807.0469 Q2378.5313,805.7188 2379.1406,804.5781 Q2379.7656,803.4219 2380.8594,802.8125 Q2381.9531,802.1875 2383.1875,802.1875 Q2383.9219,802.1875 2384.5625,802.3594 Q2385.2188,802.5156 2385.7656,802.875 Z " fill="#000000"/><text fill="#000000" font-family="sans-serif" font-size="14" lengthAdjust="spacing" textLength="58" x="2397" y="812.7285">UserAlert</text><line style="stroke:#181818;stroke-width:0.5;" x1="2369" x2="2457" y1="823" y2="823"/><line style="stroke:#181818;stroke-width:0.5;" x1="2369" x2="2457" y1="831" y2="831"/></g><!--class User--><g id="elem_User"><rect codeLine="131" fill="#F1F1F1" height="48" id="User" rx="2.5" ry="2.5" style="stroke:#181818;stroke-width:0.5;" width="61" x="2493.5" y="791"/><ellipse cx="2508.5" cy="807" fill="#ADD1B2" rx="11" ry="11" style="stroke:#181818;stroke-width:1.0;"/><path d="M2511.2656,802.875 Q2511.4219,802.6563 2511.6094,802.5469 Q2511.7969,802.4375 2512.0156,802.4375 Q2512.3906,802.4375 2512.625,802.7031 Q2512.8594,802.9531 2512.8594,803.5625 L2512.8594,805.0156 Q2512.8594,805.625 2512.625,805.8906 Q2512.3906,806.1563 2512.0156,806.1563 Q2511.6719,806.1563 2511.4688,805.9531 Q2511.2656,805.7656 2511.1563,805.25 Q2511.1094,804.8906 2510.9219,804.7031 Q2510.5938,804.3281 2509.9844,804.1094 Q2509.375,803.8906 2508.75,803.8906 Q2507.9844,803.8906 2507.3438,804.2188 Q2506.7188,804.5469 2506.2188,805.2969 Q2505.7344,806.0469 2505.7344,807.0781 L2505.7344,808.1719 Q2505.7344,809.4063 2506.625,810.2344 Q2507.5156,811.0469 2509.1094,811.0469 Q2510.0469,811.0469 2510.7031,810.7969 Q2511.0938,810.6406 2511.5156,810.2031 Q2511.7813,809.9375 2511.9219,809.8594 Q2512.0781,809.7813 2512.2813,809.7813 Q2512.6094,809.7813 2512.8594,810.0469 Q2513.125,810.2969 2513.125,810.6406 Q2513.125,810.9844 2512.7813,811.3906 Q2512.2813,811.9688 2511.4844,812.2969 Q2510.4063,812.75 2509.1094,812.75 Q2507.5938,812.75 2506.3906,812.125 Q2505.4063,811.625 2504.7188,810.5625 Q2504.0313,809.4844 2504.0313,808.2031 L2504.0313,807.0469 Q2504.0313,805.7188 2504.6406,804.5781 Q2505.2656,803.4219 2506.3594,802.8125 Q2507.4531,802.1875 2508.6875,802.1875 Q2509.4219,802.1875 2510.0625,802.3594 Q2510.7188,802.5156 2511.2656,802.875 Z " fill="#000000"/><text fill="#000000" font-family="sans-serif" font-size="14" lengthAdjust="spacing" textLength="29" x="2522.5" y="812.7285">User</text><line style="stroke:#181818;stroke-width:0.5;" x1="2494.5" x2="2553.5" y1="823" y2="823"/><line style="stroke:#181818;stroke-width:0.5;" x1="2494.5" x2="2553.5" y1="831" y2="831"/></g><!--class Wallet--><g id="elem_Wallet"><rect codeLine="132" fill="#F1F1F1" height="48" id="Wallet" rx="2.5" ry="2.5" style="stroke:#181818;stroke-width:0.5;" width="71" x="2589.5" y="791"/><ellipse cx="2604.5" cy="807" fill="#ADD1B2" rx="11" ry="11" style="stroke:#181818;stroke-width:1.0;"/><path d="M2607.2656,802.875 Q2607.4219,802.6563 2607.6094,802.5469 Q2607.7969,802.4375 2608.0156,802.4375 Q2608.3906,802.4375 2608.625,802.7031 Q2608.8594,802.9531 2608.8594,803.5625 L2608.8594,805.0156 Q2608.8594,805.625 2608.625,805.8906 Q2608.3906,806.1563 2608.0156,806.1563 Q2607.6719,806.1563 2607.4688,805.9531 Q2607.2656,805.7656 2607.1563,805.25 Q2607.1094,804.8906 2606.9219,804.7031 Q2606.5938,804.3281 2605.9844,804.1094 Q2605.375,803.8906 2604.75,803.8906 Q2603.9844,803.8906 2603.3438,804.2188 Q2602.7188,804.5469 2602.2188,805.2969 Q2601.7344,806.0469 2601.7344,807.0781 L2601.7344,808.1719 Q2601.7344,809.4063 2602.625,810.2344 Q2603.5156,811.0469 2605.1094,811.0469 Q2606.0469,811.0469 2606.7031,810.7969 Q2607.0938,810.6406 2607.5156,810.2031 Q2607.7813,809.9375 2607.9219,809.8594 Q2608.0781,809.7813 2608.2813,809.7813 Q2608.6094,809.7813 2608.8594,810.0469 Q2609.125,810.2969 2609.125,810.6406 Q2609.125,810.9844 2608.7813,811.3906 Q2608.2813,811.9688 2607.4844,812.2969 Q2606.4063,812.75 2605.1094,812.75 Q2603.5938,812.75 2602.3906,812.125 Q2601.4063,811.625 2600.7188,810.5625 Q2600.0313,809.4844 2600.0313,808.2031 L2600.0313,807.0469 Q2600.0313,805.7188 2600.6406,804.5781 Q2601.2656,803.4219 2602.3594,802.8125 Q2603.4531,802.1875 2604.6875,802.1875 Q2605.4219,802.1875 2606.0625,802.3594 Q2606.7188,802.5156 2607.2656,802.875 Z " fill="#000000"/><text fill="#000000" font-family="sans-serif" font-size="14" lengthAdjust="spacing" textLength="39" x="2618.5" y="812.7285">Wallet</text><line style="stroke:#181818;stroke-width:0.5;" x1="2590.5" x2="2659.5" y1="823" y2="823"/><line style="stroke:#181818;stroke-width:0.5;" x1="2590.5" x2="2659.5" y1="831" y2="831"/></g><!--class IRepository--><g id="elem_IRepository"><rect codeLine="136" fill="#F1F1F1" height="48" id="IRepository" rx="2.5" ry="2.5" style="stroke:#181818;stroke-width:0.5;" width="115" x="5049.5" y="130"/><ellipse cx="5064.5" cy="146" fill="#B4A7E5" rx="11" ry="11" style="stroke:#181818;stroke-width:1.0;"/><path d="M5065.4531,142.6406 L5065.4531,149.2969 L5067.1719,149.2969 Q5067.7813,149.2969 5068.0469,149.5313 Q5068.3125,149.7656 5068.3125,150.1563 Q5068.3125,150.5313 5068.0469,150.7656 Q5067.7813,151 5067.1719,151 L5062.0313,151 Q5061.4219,151 5061.1563,150.7656 Q5060.8906,150.5313 5060.8906,150.1406 Q5060.8906,149.7656 5061.1563,149.5313 Q5061.4219,149.2969 5062.0313,149.2969 L5063.75,149.2969 L5063.75,142.6406 L5062.0313,142.6406 Q5061.4219,142.6406 5061.1563,142.4063 Q5060.8906,142.1719 5060.8906,141.7813 Q5060.8906,141.4063 5061.1563,141.1719 Q5061.4219,140.9375 5062.0313,140.9375 L5067.1719,140.9375 Q5067.7813,140.9375 5068.0469,141.1719 Q5068.3125,141.4063 5068.3125,141.7813 Q5068.3125,142.1719 5068.0469,142.4063 Q5067.7813,142.6406 5067.1719,142.6406 L5065.4531,142.6406 Z " fill="#000000"/><text fill="#000000" font-family="sans-serif" font-size="14" font-style="italic" lengthAdjust="spacing" textLength="72" x="5078.5" y="151.7285">IRepository</text><rect fill="#FFFFFF" height="17.0938" style="stroke:#181818;stroke-width:1.0;stroke-dasharray:2.0,2.0;" width="9" x="5158.5" y="127"/><text fill="#000000" font-family="sans-serif" font-size="12" font-style="italic" lengthAdjust="spacing" textLength="7" x="5159.5" y="140.457">T</text><line style="stroke:#181818;stroke-width:0.5;" x1="5050.5" x2="5163.5" y1="162" y2="162"/><line style="stroke:#181818;stroke-width:0.5;" x1="5050.5" x2="5163.5" y1="170" y2="170"/></g><!--class ICurrencyRepository--><g id="elem_ICurrencyRepository"><rect codeLine="137" fill="#F1F1F1" height="48" id="ICurrencyRepository" rx="2.5" ry="2.5" style="stroke:#181818;stroke-width:0.5;" width="162" x="4486" y="292"/><ellipse cx="4501" cy="308" fill="#B4A7E5" rx="11" ry="11" style="stroke:#181818;stroke-width:1.0;"/><path d="M4501.9531,304.6406 L4501.9531,311.2969 L4503.6719,311.2969 Q4504.2813,311.2969 4504.5469,311.5313 Q4504.8125,311.7656 4504.8125,312.1563 Q4504.8125,312.5313 4504.5469,312.7656 Q4504.2813,313 4503.6719,313 L4498.5313,313 Q4497.9219,313 4497.6563,312.7656 Q4497.3906,312.5313 4497.3906,312.1406 Q4497.3906,311.7656 4497.6563,311.5313 Q4497.9219,311.2969 4498.5313,311.2969 L4500.25,311.2969 L4500.25,304.6406 L4498.5313,304.6406 Q4497.9219,304.6406 4497.6563,304.4063 Q4497.3906,304.1719 4497.3906,303.7813 Q4497.3906,303.4063 4497.6563,303.1719 Q4497.9219,302.9375 4498.5313,302.9375 L4503.6719,302.9375 Q4504.2813,302.9375 4504.5469,303.1719 Q4504.8125,303.4063 4504.8125,303.7813 Q4504.8125,304.1719 4504.5469,304.4063 Q4504.2813,304.6406 4503.6719,304.6406 L4501.9531,304.6406 Z " fill="#000000"/><text fill="#000000" font-family="sans-serif" font-size="14" font-style="italic" lengthAdjust="spacing" textLength="130" x="4515" y="313.7285">ICurrencyRepository</text><line style="stroke:#181818;stroke-width:0.5;" x1="4487" x2="4647" y1="324" y2="324"/><line style="stroke:#181818;stroke-width:0.5;" x1="4487" x2="4647" y1="332" y2="332"/></g><!--class IExchangeRateRepository--><g id="elem_IExchangeRateRepository"><rect codeLine="138" fill="#F1F1F1" height="48" id="IExchangeRateRepository" rx="2.5" ry="2.5" style="stroke:#181818;stroke-width:0.5;" width="196" x="4683" y="292"/><ellipse cx="4698" cy="308" fill="#B4A7E5" rx="11" ry="11" style="stroke:#181818;stroke-width:1.0;"/><path d="M4698.9531,304.6406 L4698.9531,311.2969 L4700.6719,311.2969 Q4701.2813,311.2969 4701.5469,311.5313 Q4701.8125,311.7656 4701.8125,312.1563 Q4701.8125,312.5313 4701.5469,312.7656 Q4701.2813,313 4700.6719,313 L4695.5313,313 Q4694.9219,313 4694.6563,312.7656 Q4694.3906,312.5313 4694.3906,312.1406 Q4694.3906,311.7656 4694.6563,311.5313 Q4694.9219,311.2969 4695.5313,311.2969 L4697.25,311.2969 L4697.25,304.6406 L4695.5313,304.6406 Q4694.9219,304.6406 4694.6563,304.4063 Q4694.3906,304.1719 4694.3906,303.7813 Q4694.3906,303.4063 4694.6563,303.1719 Q4694.9219,302.9375 4695.5313,302.9375 L4700.6719,302.9375 Q4701.2813,302.9375 4701.5469,303.1719 Q4701.8125,303.4063 4701.8125,303.7813 Q4701.8125,304.1719 4701.5469,304.4063 Q4701.2813,304.6406 4700.6719,304.6406 L4698.9531,304.6406 Z " fill="#000000"/><text fill="#000000" font-family="sans-serif" font-size="14" font-style="italic" lengthAdjust="spacing" textLength="164" x="4712" y="313.7285">IExchangeRateRepository</text><line style="stroke:#181818;stroke-width:0.5;" x1="4684" x2="4878" y1="324" y2="324"/><line style="stroke:#181818;stroke-width:0.5;" x1="4684" x2="4878" y1="332" y2="332"/></g><!--class ITransactionRepository--><g id="elem_ITransactionRepository"><rect codeLine="139" fill="#F1F1F1" height="48" id="ITransactionRepository" rx="2.5" ry="2.5" style="stroke:#181818;stroke-width:0.5;" width="179" x="4914.5" y="292"/><ellipse cx="4929.5" cy="308" fill="#B4A7E5" rx="11" ry="11" style="stroke:#181818;stroke-width:1.0;"/><path d="M4930.4531,304.6406 L4930.4531,311.2969 L4932.1719,311.2969 Q4932.7813,311.2969 4933.0469,311.5313 Q4933.3125,311.7656 4933.3125,312.1563 Q4933.3125,312.5313 4933.0469,312.7656 Q4932.7813,313 4932.1719,313 L4927.0313,313 Q4926.4219,313 4926.1563,312.7656 Q4925.8906,312.5313 4925.8906,312.1406 Q4925.8906,311.7656 4926.1563,311.5313 Q4926.4219,311.2969 4927.0313,311.2969 L4928.75,311.2969 L4928.75,304.6406 L4927.0313,304.6406 Q4926.4219,304.6406 4926.1563,304.4063 Q4925.8906,304.1719 4925.8906,303.7813 Q4925.8906,303.4063 4926.1563,303.1719 Q4926.4219,302.9375 4927.0313,302.9375 L4932.1719,302.9375 Q4932.7813,302.9375 4933.0469,303.1719 Q4933.3125,303.4063 4933.3125,303.7813 Q4933.3125,304.1719 4933.0469,304.4063 Q4932.7813,304.6406 4932.1719,304.6406 L4930.4531,304.6406 Z " fill="#000000"/><text fill="#000000" font-family="sans-serif" font-size="14" font-style="italic" lengthAdjust="spacing" textLength="147" x="4943.5" y="313.7285">ITransactionRepository</text><line style="stroke:#181818;stroke-width:0.5;" x1="4915.5" x2="5092.5" y1="324" y2="324"/><line style="stroke:#181818;stroke-width:0.5;" x1="4915.5" x2="5092.5" y1="332" y2="332"/></g><!--class IUserAlertRepository--><g id="elem_IUserAlertRepository"><rect codeLine="140" fill="#F1F1F1" height="48" id="IUserAlertRepository" rx="2.5" ry="2.5" style="stroke:#181818;stroke-width:0.5;" width="163" x="5128.5" y="292"/><ellipse cx="5143.5" cy="308" fill="#B4A7E5" rx="11" ry="11" style="stroke:#181818;stroke-width:1.0;"/><path d="M5144.4531,304.6406 L5144.4531,311.2969 L5146.1719,311.2969 Q5146.7813,311.2969 5147.0469,311.5313 Q5147.3125,311.7656 5147.3125,312.1563 Q5147.3125,312.5313 5147.0469,312.7656 Q5146.7813,313 5146.1719,313 L5141.0313,313 Q5140.4219,313 5140.1563,312.7656 Q5139.8906,312.5313 5139.8906,312.1406 Q5139.8906,311.7656 5140.1563,311.5313 Q5140.4219,311.2969 5141.0313,311.2969 L5142.75,311.2969 L5142.75,304.6406 L5141.0313,304.6406 Q5140.4219,304.6406 5140.1563,304.4063 Q5139.8906,304.1719 5139.8906,303.7813 Q5139.8906,303.4063 5140.1563,303.1719 Q5140.4219,302.9375 5141.0313,302.9375 L5146.1719,302.9375 Q5146.7813,302.9375 5147.0469,303.1719 Q5147.3125,303.4063 5147.3125,303.7813 Q5147.3125,304.1719 5147.0469,304.4063 Q5146.7813,304.6406 5146.1719,304.6406 L5144.4531,304.6406 Z " fill="#000000"/><text fill="#000000" font-family="sans-serif" font-size="14" font-style="italic" lengthAdjust="spacing" textLength="131" x="5157.5" y="313.7285">IUserAlertRepository</text><line style="stroke:#181818;stroke-width:0.5;" x1="5129.5" x2="5290.5" y1="324" y2="324"/><line style="stroke:#181818;stroke-width:0.5;" x1="5129.5" x2="5290.5" y1="332" y2="332"/></g><!--class IUserRepository--><g id="elem_IUserRepository"><rect codeLine="141" fill="#F1F1F1" height="48" id="IUserRepository" rx="2.5" ry="2.5" style="stroke:#181818;stroke-width:0.5;" width="134" x="5327" y="292"/><ellipse cx="5342" cy="308" fill="#B4A7E5" rx="11" ry="11" style="stroke:#181818;stroke-width:1.0;"/><path d="M5342.9531,304.6406 L5342.9531,311.2969 L5344.6719,311.2969 Q5345.2813,311.2969 5345.5469,311.5313 Q5345.8125,311.7656 5345.8125,312.1563 Q5345.8125,312.5313 5345.5469,312.7656 Q5345.2813,313 5344.6719,313 L5339.5313,313 Q5338.9219,313 5338.6563,312.7656 Q5338.3906,312.5313 5338.3906,312.1406 Q5338.3906,311.7656 5338.6563,311.5313 Q5338.9219,311.2969 5339.5313,311.2969 L5341.25,311.2969 L5341.25,304.6406 L5339.5313,304.6406 Q5338.9219,304.6406 5338.6563,304.4063 Q5338.3906,304.1719 5338.3906,303.7813 Q5338.3906,303.4063 5338.6563,303.1719 Q5338.9219,302.9375 5339.5313,302.9375 L5344.6719,302.9375 Q5345.2813,302.9375 5345.5469,303.1719 Q5345.8125,303.4063 5345.8125,303.7813 Q5345.8125,304.1719 5345.5469,304.4063 Q5345.2813,304.6406 5344.6719,304.6406 L5342.9531,304.6406 Z " fill="#000000"/><text fill="#000000" font-family="sans-serif" font-size="14" font-style="italic" lengthAdjust="spacing" textLength="102" x="5356" y="313.7285">IUserRepository</text><line style="stroke:#181818;stroke-width:0.5;" x1="5328" x2="5460" y1="324" y2="324"/><line style="stroke:#181818;stroke-width:0.5;" x1="5328" x2="5460" y1="332" y2="332"/></g><!--class IWalletRepository--><g id="elem_IWalletRepository"><rect codeLine="142" fill="#F1F1F1" height="48" id="IWalletRepository" rx="2.5" ry="2.5" style="stroke:#181818;stroke-width:0.5;" width="144" x="5496" y="292"/><ellipse cx="5511" cy="308" fill="#B4A7E5" rx="11" ry="11" style="stroke:#181818;stroke-width:1.0;"/><path d="M5511.9531,304.6406 L5511.9531,311.2969 L5513.6719,311.2969 Q5514.2813,311.2969 5514.5469,311.5313 Q5514.8125,311.7656 5514.8125,312.1563 Q5514.8125,312.5313 5514.5469,312.7656 Q5514.2813,313 5513.6719,313 L5508.5313,313 Q5507.9219,313 5507.6563,312.7656 Q5507.3906,312.5313 5507.3906,312.1406 Q5507.3906,311.7656 5507.6563,311.5313 Q5507.9219,311.2969 5508.5313,311.2969 L5510.25,311.2969 L5510.25,304.6406 L5508.5313,304.6406 Q5507.9219,304.6406 5507.6563,304.4063 Q5507.3906,304.1719 5507.3906,303.7813 Q5507.3906,303.4063 5507.6563,303.1719 Q5507.9219,302.9375 5508.5313,302.9375 L5513.6719,302.9375 Q5514.2813,302.9375 5514.5469,303.1719 Q5514.8125,303.4063 5514.8125,303.7813 Q5514.8125,304.1719 5514.5469,304.4063 Q5514.2813,304.6406 5513.6719,304.6406 L5511.9531,304.6406 Z " fill="#000000"/><text fill="#000000" font-family="sans-serif" font-size="14" font-style="italic" lengthAdjust="spacing" textLength="112" x="5525" y="313.7285">IWalletRepository</text><line style="stroke:#181818;stroke-width:0.5;" x1="5497" x2="5639" y1="324" y2="324"/><line style="stroke:#181818;stroke-width:0.5;" x1="5497" x2="5639" y1="332" y2="332"/></g><!--reverse link IService to ICurrencyService--><g id="link_IService_ICurrencyService"><path codeLine="36" d="M2187.4436,167.1718 C1960.4736,186.3018 1496.74,228.15 1092,283 C1086.28,283.77 1080.47,284.59 1074.61,285.44 " fill="none" id="IService-backto-ICurrencyService" style="stroke:#181818;stroke-width:1.0;"/><polygon fill="none" points="2205.38,165.66,2186.9397,161.193,2187.9475,173.1506,2205.38,165.66" style="stroke:#181818;stroke-width:1.0;"/></g><!--reverse link IService to IExchangeRateService--><g id="link_IService_IExchangeRateService"><path codeLine="37" d="M2187.641,182.0036 C2035.801,209.6436 1802.21,252.16 1633.2,282.93 " fill="none" id="IService-backto-IExchangeRateService" style="stroke:#181818;stroke-width:1.0;"/><polygon fill="none" points="2205.35,178.78,2186.5665,176.1006,2188.7156,187.9066,2205.35,178.78" style="stroke:#181818;stroke-width:1.0;"/></g><!--reverse link IService to ITransactionService--><g id="link_IService_ITransactionService"><path codeLine="38" d="M2213.2865,231.7008 C2179.6265,252.7408 2159.28,265.45 2131.37,282.9 " fill="none" id="IService-backto-ITransactionService" style="stroke:#181818;stroke-width:1.0;"/><polygon fill="none" points="2228.55,222.16,2210.1063,226.613,2216.4668,236.7886,2228.55,222.16" style="stroke:#181818;stroke-width:1.0;"/></g><!--reverse link IService to IUserAlertService--><g id="link_IService_IUserAlertService"><path codeLine="39" d="M2459.1512,231.6723 C2492.9512,252.7123 2513.41,265.45 2541.43,282.9 " fill="none" id="IService-backto-IUserAlertService" style="stroke:#181818;stroke-width:1.0;"/><polygon fill="none" points="2443.87,222.16,2455.9804,236.7661,2462.322,226.5786,2443.87,222.16" style="stroke:#181818;stroke-width:1.0;"/></g><!--reverse link IService to IUserService--><g id="link_IService_IUserService"><path codeLine="40" d="M2484.2849,188.6082 C2607.4449,216.5182 2773.93,254.25 2900.5,282.93 " fill="none" id="IService-backto-IUserService" style="stroke:#181818;stroke-width:1.0;"/><polygon fill="none" points="2466.73,184.63,2482.9588,194.4598,2485.611,182.7566,2466.73,184.63" style="stroke:#181818;stroke-width:1.0;"/></g><!--reverse link IService to IWalletService--><g id="link_IService_IWalletService"><path codeLine="41" d="M2484.6218,176.0464 C2659.7818,200.8764 2962.4,243.83 3236,283 C3241.69,283.81 3247.45,284.64 3253.27,285.48 " fill="none" id="IService-backto-IWalletService" style="stroke:#181818;stroke-width:1.0;"/><polygon fill="none" points="2466.8,173.52,2483.7797,181.987,2485.4639,170.1057,2466.8,173.52" style="stroke:#181818;stroke-width:1.0;"/></g><!--reverse link ICurrencyService to CurrencyService--><g id="link_ICurrencyService_CurrencyService"><path codeLine="111" d="M711.7464,344.3579 C635.3064,358.1579 562.95,375.53 485,405 C453.49,416.91 421.18,432.49 390.82,448.87 " fill="none" id="ICurrencyService-backto-CurrencyService" style="stroke:#181818;stroke-width:1.0;stroke-dasharray:7.0,7.0;"/><polygon fill="none" points="729.46,341.16,710.6804,338.4534,712.8123,350.2625,729.46,341.16" style="stroke:#181818;stroke-width:1.0;"/></g><!--reverse link IExchangeRateService to ExchangeRateService--><g id="link_IExchangeRateService_ExchangeRateService"><path codeLine="112" d="M1382.7687,357.7275 C1335.2287,383.8075 1281.43,413.33 1216.61,448.89 " fill="none" id="IExchangeRateService-backto-ExchangeRateService" style="stroke:#181818;stroke-width:1.0;stroke-dasharray:7.0,7.0;"/><polygon fill="none" points="1398.55,349.07,1379.8829,352.467,1385.6546,362.9879,1398.55,349.07" style="stroke:#181818;stroke-width:1.0;"/></g><!--reverse link ITransactionService to TransactionService--><g id="link_ITransactionService_TransactionService"><path codeLine="113" d="M2048.351,364.2639 C2030.891,390.3239 2015.45,413.4 1991.72,448.83 " fill="none" id="ITransactionService-backto-TransactionService" style="stroke:#181818;stroke-width:1.0;stroke-dasharray:7.0,7.0;"/><polygon fill="none" points="2058.37,349.31,2043.3664,360.9242,2053.3356,367.6036,2058.37,349.31" style="stroke:#181818;stroke-width:1.0;"/></g><!--reverse link IUserAlertService to UserAlertService--><g id="link_IUserAlertService_UserAlertService"><path codeLine="114" d="M2612.778,366.0013 C2623.298,392.0613 2631.9,413.4 2646.2,448.83 " fill="none" id="IUserAlertService-backto-UserAlertService" style="stroke:#181818;stroke-width:1.0;stroke-dasharray:7.0,7.0;"/><polygon fill="none" points="2606.04,349.31,2607.2142,368.2473,2618.3418,363.7553,2606.04,349.31" style="stroke:#181818;stroke-width:1.0;"/></g><!--reverse link IUserService to UserService--><g id="link_IUserService_UserService"><path codeLine="115" d="M3101.5923,359.5251 C3138.1423,385.6051 3176.99,413.33 3226.82,448.89 " fill="none" id="IUserService-backto-UserService" style="stroke:#181818;stroke-width:1.0;stroke-dasharray:7.0,7.0;"/><polygon fill="none" points="3086.94,349.07,3098.1073,364.4092,3105.0774,354.641,3086.94,349.07" style="stroke:#181818;stroke-width:1.0;"/></g><!--reverse link IWalletService to WalletService--><g id="link_IWalletService_WalletService"><path codeLine="116" d="M3607.2622,353.9232 C3658.0622,368.2732 3698.61,382.25 3749,405 C3776.79,417.55 3805.3,432.99 3832.23,448.94 " fill="none" id="IWalletService-backto-WalletService" style="stroke:#181818;stroke-width:1.0;stroke-dasharray:7.0,7.0;"/><polygon fill="none" points="3589.94,349.03,3605.6311,359.6972,3608.8932,348.1491,3589.94,349.03" style="stroke:#181818;stroke-width:1.0;"/></g><!--link CurrencyService to ICurrencyRepository--><g id="link_CurrencyService_ICurrencyRepository"><path codeLine="118" d="M437.89,543.5 C460.45,543.5 476.41,543.5 496.13,543.5 " fill="none" id="CurrencyService-to-ICurrencyRepository" style="stroke:#181818;stroke-width:1.0;stroke-dasharray:7.0,7.0;"/><polygon fill="#181818" points="502.13,543.5,493.13,539.5,497.13,543.5,493.13,547.5,502.13,543.5" style="stroke:#181818;stroke-width:1.0;"/><text fill="#000000" font-family="sans-serif" font-size="13" lengthAdjust="spacing" textLength="28" x="456" y="536.9951">uses</text></g><!--link ExchangeRateService to IExchangeRateRepository--><g id="link_ExchangeRateService_IExchangeRateRepository"><path codeLine="119" d="M1393.58,543.5 C1416.64,543.5 1432.54,543.5 1452.35,543.5 " fill="none" id="ExchangeRateService-to-IExchangeRateRepository" style="stroke:#181818;stroke-width:1.0;stroke-dasharray:7.0,7.0;"/><polygon fill="#181818" points="1458.35,543.5,1449.35,539.5,1453.35,543.5,1449.35,547.5,1458.35,543.5" style="stroke:#181818;stroke-width:1.0;"/><text fill="#000000" font-family="sans-serif" font-size="13" lengthAdjust="spacing" textLength="28" x="1412" y="536.9951">uses</text></g><!--link TransactionService to ITransactionRepository--><g id="link_TransactionService_ITransactionRepository"><path codeLine="120" d="M2169.54,543.5 C2192.13,543.5 2207.92,543.5 2227.63,543.5 " fill="none" id="TransactionService-to-ITransactionRepository" style="stroke:#181818;stroke-width:1.0;stroke-dasharray:7.0,7.0;"/><polygon fill="#181818" points="2233.63,543.5,2224.63,539.5,2228.63,543.5,2224.63,547.5,2233.63,543.5" style="stroke:#181818;stroke-width:1.0;"/><text fill="#000000" font-family="sans-serif" font-size="13" lengthAdjust="spacing" textLength="28" x="2187.75" y="536.9951">uses</text></g><!--link UserAlertService to IUserAlertRepository--><g id="link_UserAlertService_IUserAlertRepository"><path codeLine="121" d="M2921.04,543.5 C2943.86,543.5 2959.76,543.5 2979.31,543.5 " fill="none" id="UserAlertService-to-IUserAlertRepository" style="stroke:#181818;stroke-width:1.0;stroke-dasharray:7.0,7.0;"/><polygon fill="#181818" points="2985.31,543.5,2976.31,539.5,2980.31,543.5,2976.31,547.5,2985.31,543.5" style="stroke:#181818;stroke-width:1.0;"/><text fill="#000000" font-family="sans-serif" font-size="13" lengthAdjust="spacing" textLength="28" x="2939.25" y="536.9951">uses</text></g><!--link UserService to IUserRepository--><g id="link_UserService_IUserRepository"><path codeLine="122" d="M3534.8,543.5 C3557.46,543.5 3573.43,543.5 3592.66,543.5 " fill="none" id="UserService-to-IUserRepository" style="stroke:#181818;stroke-width:1.0;stroke-dasharray:7.0,7.0;"/><polygon fill="#181818" points="3598.66,543.5,3589.66,539.5,3593.66,543.5,3589.66,547.5,3598.66,543.5" style="stroke:#181818;stroke-width:1.0;"/><text fill="#000000" font-family="sans-serif" font-size="13" lengthAdjust="spacing" textLength="28" x="3552.75" y="536.9951">uses</text></g><!--link WalletService to IWalletRepository--><g id="link_WalletService_IWalletRepository"><path codeLine="123" d="M4175.65,543.5 C4198.43,543.5 4214.35,543.5 4233.66,543.5 " fill="none" id="WalletService-to-IWalletRepository" style="stroke:#181818;stroke-width:1.0;stroke-dasharray:7.0,7.0;"/><polygon fill="#181818" points="4239.66,543.5,4230.66,539.5,4234.66,543.5,4230.66,547.5,4239.66,543.5" style="stroke:#181818;stroke-width:1.0;"/><text fill="#000000" font-family="sans-serif" font-size="13" lengthAdjust="spacing" textLength="28" x="4193.75" y="536.9951">uses</text></g><!--reverse link IRepository to ICurrencyRepository--><g id="link_IRepository_ICurrencyRepository"><path codeLine="144" d="M5032.0734,175.9974 C4947.7034,199.7474 4803,240.99 4666,283 C4656.76,285.83 4647.06,288.88 4637.49,291.93 " fill="none" id="IRepository-backto-ICurrencyRepository" style="stroke:#181818;stroke-width:1.0;"/><polygon fill="none" points="5049.4,171.12,5030.4476,170.2219,5033.6992,181.7729,5049.4,171.12" style="stroke:#181818;stroke-width:1.0;"/></g><!--reverse link IRepository to IExchangeRateRepository--><g id="link_IRepository_IExchangeRateRepository"><path codeLine="145" d="M5043.7817,186.0216 C4981.8917,216.4016 4889.92,261.54 4828.04,291.91 " fill="none" id="IRepository-backto-IExchangeRateRepository" style="stroke:#181818;stroke-width:1.0;"/><polygon fill="none" points="5059.94,178.09,5041.1379,180.6355,5046.4256,191.4077,5059.94,178.09" style="stroke:#181818;stroke-width:1.0;"/></g><!--reverse link IRepository to ITransactionRepository--><g id="link_IRepository_ITransactionRepository"><path codeLine="146" d="M5082.2778,193.4057 C5062.6978,223.8257 5038.34,261.66 5018.83,291.97 " fill="none" id="IRepository-backto-ITransactionRepository" style="stroke:#181818;stroke-width:1.0;"/><polygon fill="none" points="5092.02,178.27,5077.2326,190.1583,5087.3231,196.6531,5092.02,178.27" style="stroke:#181818;stroke-width:1.0;"/></g><!--reverse link IRepository to IUserAlertRepository--><g id="link_IRepository_IUserAlertRepository"><path codeLine="147" d="M5131.7222,193.4057 C5151.3022,223.8257 5175.66,261.66 5195.17,291.97 " fill="none" id="IRepository-backto-IUserAlertRepository" style="stroke:#181818;stroke-width:1.0;"/><polygon fill="none" points="5121.98,178.27,5126.6769,196.6531,5136.7674,190.1583,5121.98,178.27" style="stroke:#181818;stroke-width:1.0;"/></g><!--reverse link IRepository to IUserRepository--><g id="link_IRepository_IUserRepository"><path codeLine="148" d="M5164.1509,186.8566 C5218.6309,217.2366 5298.11,261.54 5352.59,291.91 " fill="none" id="IRepository-backto-IUserRepository" style="stroke:#181818;stroke-width:1.0;"/><polygon fill="none" points="5148.43,178.09,5161.2287,192.0969,5167.0731,181.6162,5148.43,178.09" style="stroke:#181818;stroke-width:1.0;"/></g><!--reverse link IRepository to IWalletRepository--><g id="link_IRepository_IWalletRepository"><path codeLine="149" d="M5181.8006,180.3981 C5255.0106,205.3081 5368.02,243.96 5479,283 C5487.21,285.89 5495.83,288.95 5504.35,291.99 " fill="none" id="IRepository-backto-IWalletRepository" style="stroke:#181818;stroke-width:1.0;"/><polygon fill="none" points="5164.76,174.6,5179.8679,186.0783,5183.7333,174.7179,5164.76,174.6" style="stroke:#181818;stroke-width:1.0;"/></g><!--link CurrencyService to Currency--><g id="link_CurrencyService_Currency"><path codeLine="152" d="M378.73,638.13 C412.19,657.02 448.81,674.56 485,686 C766.95,775.13 1715.9224,806.5016 1934.9724,812.6516 " fill="none" id="CurrencyService-to-Currency" style="stroke:#181818;stroke-width:1.0;"/><polygon fill="#181818" points="1940.97,812.82,1932.0858,808.569,1935.972,812.6797,1931.8613,816.5658,1940.97,812.82" style="stroke:#181818;stroke-width:1.0;"/></g><!--link ExchangeRateService to ExchangeRate--><g id="link_ExchangeRateService_ExchangeRate"><path codeLine="153" d="M1268.7,638.09 C1324.05,657.48 1383.91,675.26 1441,686 C1507.42,698.5 1989.37,671.19 2049,703 C2084.27,721.82 2104.9937,758.6637 2116.6437,785.2737 " fill="none" id="ExchangeRateService-to-ExchangeRate" style="stroke:#181818;stroke-width:1.0;"/><polygon fill="#181818" points="2119.05,790.77,2119.1047,780.9213,2117.0447,786.1897,2111.7763,784.1297,2119.05,790.77" style="stroke:#181818;stroke-width:1.0;"/></g><!--link TransactionService to Transaction--><g id="link_TransactionService_Transaction"><path codeLine="154" d="M2122.94,638.19 C2153.19,657.32 2182.74,679.03 2208,703 C2235.05,728.67 2253.7807,761.2715 2265.7507,785.4815 " fill="none" id="TransactionService-to-Transaction" style="stroke:#181818;stroke-width:1.0;"/><polygon fill="#181818" points="2268.41,790.86,2268.0068,781.0194,2266.1939,786.3779,2260.8354,784.5651,2268.41,790.86" style="stroke:#181818;stroke-width:1.0;"/></g><!--link UserAlertService to UserAlert--><g id="link_UserAlertService_UserAlert"><path codeLine="155" d="M2544.55,638.21 C2520.15,657.99 2496.16,679.92 2476,703 C2452.53,729.87 2436.138,761.3756 2425.368,785.1256 " fill="none" id="UserAlertService-to-UserAlert" style="stroke:#181818;stroke-width:1.0;"/><polygon fill="#181818" points="2422.89,790.59,2430.2499,784.0454,2424.955,786.0363,2422.964,780.7414,2422.89,790.59" style="stroke:#181818;stroke-width:1.0;"/></g><!--link UserService to User--><g id="link_UserService_User"><path codeLine="156" d="M3253.48,638.06 C3226.14,657.46 3195.46,675.24 3164,686 C3101.73,707.29 2626.47,666.08 2572,703 C2542.8,722.79 2532.2587,758.4954 2527.7787,784.7654 " fill="none" id="UserService-to-User" style="stroke:#181818;stroke-width:1.0;"/><polygon fill="#181818" points="2526.77,790.68,2532.2261,782.4805,2527.6105,785.7512,2524.3399,781.1356,2526.77,790.68" style="stroke:#181818;stroke-width:1.0;"/></g><!--link WalletService to Wallet--><g id="link_WalletService_Wallet"><path codeLine="157" d="M3845.83,638.06 C3815.47,656.77 3782.17,674.25 3749,686 C3540.5,759.85 2834.7109,802.5098 2666.7209,811.7698 " fill="none" id="WalletService-to-Wallet" style="stroke:#181818;stroke-width:1.0;"/><polygon fill="#181818" points="2660.73,812.1,2669.9365,815.5986,2665.7224,811.8248,2669.4962,807.6107,2660.73,812.1" style="stroke:#181818;stroke-width:1.0;"/></g><!--SRC=[lLXDRzim3BtdLmWx9TXYx3m40TAr67mRsXGx3egZfa8T9P3aRTxQ_pv_ABO-I5lkYlcKI8-ag4THprPFN9off4UIvLIfZTQIxmhDqkmaxlXlHZxEPcUQFT438-ysvtFECwhvIIIfq4m-q8ofT-JFZ5GFluoGz8x97pnZg-tQpDNFUxAbwgaU-yBqLPdkDweKsRmo8to_y67fZIYEJD9TNhjfR3PvtfhuOBBP6sTRmeJckWmGz-SzrMm4TCro1eDUPdwAdmifcSXAasgOvmLWqhqhZxkJMR-gDbaSY6g6i00tlx97AWxijbet6iG6cK2Nk5yfbqwu7LMiMtKJ-WCnKvhA0zFk9BQkhQH2qQmk0dHP3dazlgNnNZ5f3Qg-38fg9jrZWMkxJSwaZWhReVkWpLzrLTutOQQ4HIFMasRVwv-27fcpvuKPn9n_etbLSb49jT0-c_R_yEvT3Y9PFI-NGSr24A3g85XO113APmp334mx6pHxGPgHcUzQKTFB27v4hRsuPUUJuleaI_8z2yOiGZnlSyX3w60nqXOcTC7EChOPNWnYUk8OrcwD8zZNTRwMik6cvzMdJHq3nwsL0Pxdc3VOsIAY-KwWqx6EfTGsYg4r1czJ6u7_RtTEMn63rutRYUnwqD2mdKdWTewu0Zq5csBVSjFrZNz5nYYTtYPAyup37VKp2d_3ExubUk1wjwyIc-GY7BHMwJkSWqu07mlebc-rn6HgFHaIGMnd4KFhADWcTGpyXlgffnHbqoSIvT2XpsDkXBJNyJM9gbYMOWd2k7cLqcnfm4Hc9wziAdvw8zOw73_pqDOt3N8m4dOoARRqZQ2bXSSGCuoqgHb4_hjEzwNgwZb922ZN8ONKe57b3joWZG6cuOD6tA1XBM-Vy0xc8DpYQp2kfczWVlw9v8T7dQn1dVwftaBLs46xqTiYyiwo1_QcDuVrW6KTx5Hl2rqrdYLi1EFTNUmjWZDeREmNfUlJaNAHtDIbox5t94I3mq8CkhMziQ3zE4jAnOEaLUCgCbr8bdJhv-3Nf3wzrNQDVOVnEXRo8GL7RL7127s268RWipvVvlXR1Bflwfwd43YGN0Z6SmonMAemSXGK95wLWt_ebyjrNu_GoQu1JdK2nxV6sAKQdD4Qq5UjVH0lCpFtjDN3feR_0W00]--></g></svg>